<?xml version="1.0" encoding="UTF-8" standalone="no"?>
<!-- Created with Inkscape (http://www.inkscape.org/) -->

<svg
   xmlns:dc="http://purl.org/dc/elements/1.1/"
   xmlns:cc="http://creativecommons.org/ns#"
   xmlns:rdf="http://www.w3.org/1999/02/22-rdf-syntax-ns#"
   xmlns:svg="http://www.w3.org/2000/svg"
   xmlns="http://www.w3.org/2000/svg"
   xmlns:xlink="http://www.w3.org/1999/xlink"
   xmlns:sodipodi="http://sodipodi.sourceforge.net/DTD/sodipodi-0.dtd"
   xmlns:inkscape="http://www.inkscape.org/namespaces/inkscape"
   width="32px"
   height="32px"
   id="svg3547"
   sodipodi:version="0.32"
   inkscape:version="0.48.2 r9819"
   sodipodi:docname="logo_new.svg"
   inkscape:output_extension="org.inkscape.output.svgz.inkscape"
   inkscape:export-filename="/home/kees/projects/android/Bomber/res/drawable/newicon.png"
   inkscape:export-xdpi="175.71021"
   inkscape:export-ydpi="175.71021"
   version="1.1">
  <defs
     id="defs3549">
    <linearGradient
       id="linearGradient3221">
      <stop
         id="stop3223"
         offset="0"
         style="stop-color:#bf5e00;stop-opacity:1;" />
      <stop
         id="stop3225"
         offset="1"
         style="stop-color:#ffff00;stop-opacity:1;" />
    </linearGradient>
    <radialGradient
       inkscape:collect="always"
       xlink:href="#linearGradient3221"
       id="radialGradient3678"
       gradientUnits="userSpaceOnUse"
       gradientTransform="matrix(1.6160128,2.6877549e-8,-2.3415351e-8,1.3629167,-75.450599,-37.329241)"
       cx="122.48219"
       cy="98.430893"
       fx="122.48219"
       fy="98.430893"
       r="47.784527" />
    <radialGradient
       inkscape:collect="always"
       xlink:href="#linearGradient4177"
       id="radialGradient4183"
       cx="113.55189"
       cy="36.03302"
       fx="113.55189"
       fy="37.516903"
       r="1.8462265"
       gradientUnits="userSpaceOnUse" />
    <radialGradient
       inkscape:collect="always"
       xlink:href="#linearGradient3327"
       id="radialGradient4208"
       gradientUnits="userSpaceOnUse"
       gradientTransform="matrix(1,0,0,1.8895258,0,-30.147782)"
       cx="113.64062"
       cy="33.891968"
       fx="113.51218"
       fy="35.747726"
       r="2.109375" />
    <linearGradient
       inkscape:collect="always"
       id="linearGradient3435">
      <stop
         style="stop-color:#4d2600;stop-opacity:1;"
         offset="0"
         id="stop3437" />
      <stop
         style="stop-color:#4d2600;stop-opacity:0;"
         offset="1"
         id="stop3439" />
    </linearGradient>
    <radialGradient
       inkscape:collect="always"
       xlink:href="#linearGradient3435"
       id="radialGradient4195"
       cx="113.64062"
       cy="33.891968"
       fx="113.51218"
       fy="35.747726"
       r="2.109375"
       gradientTransform="matrix(1,0,0,1.8895258,0,-30.147782)"
       gradientUnits="userSpaceOnUse" />
    <linearGradient
       inkscape:collect="always"
       id="linearGradient4177">
      <stop
         style="stop-color:#ffffff;stop-opacity:1;"
         offset="0"
         id="stop4179" />
      <stop
         id="stop4185"
         offset="0.4953281"
         style="stop-color:#ffffff;stop-opacity:1" />
      <stop
         style="stop-color:#ffffff;stop-opacity:0.50196078;"
         offset="0.71962726"
         id="stop4187" />
      <stop
         style="stop-color:#ffffff;stop-opacity:0;"
         offset="1"
         id="stop4181" />
    </linearGradient>
    <radialGradient
       inkscape:collect="always"
       xlink:href="#linearGradient4177"
       id="radialGradient20076"
       gradientUnits="userSpaceOnUse"
       gradientTransform="matrix(2.0543954,0.2376081,-0.1002971,0.867185,-176.29111,-35.520987)"
       cx="168.79144"
       cy="-8.0560007"
       fx="168.79144"
       fy="-8.0560007"
       r="11.15625" />
    <radialGradient
       inkscape:collect="always"
       xlink:href="#linearGradient4363"
       id="radialGradient20074"
       gradientUnits="userSpaceOnUse"
       gradientTransform="matrix(0.5474129,4.5236462e-7,-2.0265029e-7,0.2453121,70.276541,6.5749913)"
       cx="159.86261"
       cy="-1.0310636"
       fx="159.86261"
       fy="-1.0310636"
       r="24.462599" />
    <linearGradient
       inkscape:collect="always"
       xlink:href="#linearGradient30747"
       id="linearGradient20072"
       gradientUnits="userSpaceOnUse"
       x1="163.3248"
       y1="21.072132"
       x2="162.25"
       y2="15.322132" />
    <linearGradient
       id="linearGradient3165">
      <stop
         style="stop-color:#cee9cb;stop-opacity:0.61960787;"
         offset="0"
         id="stop3167" />
      <stop
         style="stop-color:#37a42c;stop-opacity:0;"
         offset="1"
         id="stop3169" />
    </linearGradient>
    <linearGradient
       inkscape:collect="always"
       xlink:href="#linearGradient3165"
       id="linearGradient20070"
       gradientUnits="userSpaceOnUse"
       x1="162.3248"
       y1="15.822132"
       x2="162.25"
       y2="9.8221321" />
    <linearGradient
       inkscape:collect="always"
       id="linearGradient30747">
      <stop
         style="stop-color:#000000;stop-opacity:1;"
         offset="0"
         id="stop30749" />
      <stop
         style="stop-color:#000000;stop-opacity:0;"
         offset="1"
         id="stop30751" />
    </linearGradient>
    <linearGradient
       inkscape:collect="always"
       xlink:href="#linearGradient30747"
       id="linearGradient20068"
       gradientUnits="userSpaceOnUse"
       x1="148.75"
       y1="15.249998"
       x2="148.75"
       y2="10.624998" />
    <linearGradient
       inkscape:collect="always"
       xlink:href="#linearGradient4363"
       id="linearGradient20066"
       gradientUnits="userSpaceOnUse"
       x1="136.5"
       y1="10.624998"
       x2="142"
       y2="10.624998" />
    <linearGradient
       inkscape:collect="always"
       id="linearGradient4363">
      <stop
         style="stop-color:#f1f3f4;stop-opacity:1;"
         offset="0"
         id="stop4365" />
      <stop
         style="stop-color:#f1f3f4;stop-opacity:0;"
         offset="1"
         id="stop4367" />
    </linearGradient>
    <radialGradient
       inkscape:collect="always"
       xlink:href="#linearGradient4363"
       id="radialGradient20064"
       gradientUnits="userSpaceOnUse"
       cx="156.125"
       cy="51.625"
       fx="156.125"
       fy="51.625"
       r="7.125" />
    <linearGradient
       inkscape:collect="always"
       id="linearGradient3352">
      <stop
         style="stop-color:#ffe79a;stop-opacity:1"
         offset="0"
         id="stop3354" />
      <stop
         style="stop-color:#b8ff6f;stop-opacity:0"
         offset="1"
         id="stop3356" />
    </linearGradient>
    <radialGradient
       inkscape:collect="always"
       xlink:href="#linearGradient3352"
       id="radialGradient20062"
       gradientUnits="userSpaceOnUse"
       cx="156.125"
       cy="51.625"
       fx="156.125"
       fy="51.625"
       r="7.125" />
    <linearGradient
       inkscape:collect="always"
       id="linearGradient3327">
      <stop
         style="stop-color:#ff7e00;stop-opacity:1;"
         offset="0"
         id="stop3329" />
      <stop
         style="stop-color:#ff7e00;stop-opacity:0;"
         offset="1"
         id="stop3331" />
    </linearGradient>
    <radialGradient
       inkscape:collect="always"
       xlink:href="#linearGradient3327"
       id="radialGradient20060"
       gradientUnits="userSpaceOnUse"
       cx="156.125"
       cy="51.625"
       fx="156.125"
       fy="51.625"
       r="7.125" />
    <inkscape:perspective
       sodipodi:type="inkscape:persp3d"
       inkscape:vp_x="0 : 16 : 1"
       inkscape:vp_y="0 : 1000 : 0"
       inkscape:vp_z="32 : 16 : 1"
       inkscape:persp3d-origin="16 : 10.666667 : 1"
       id="perspective3555" />
    <linearGradient
       inkscape:collect="always"
       xlink:href="#linearGradient3221"
       id="linearGradient3862"
       x1="-0.5"
       y1="15.925417"
       x2="32.470558"
       y2="15.925417"
       gradientUnits="userSpaceOnUse" />
    <linearGradient
       inkscape:collect="always"
       xlink:href="#linearGradient3221"
       id="linearGradient3870"
       x1="-0.5"
       y1="15.925417"
       x2="32.470558"
       y2="15.925417"
       gradientUnits="userSpaceOnUse" />
  </defs>
  <sodipodi:namedview
     id="base"
     pagecolor="#ffffff"
     bordercolor="#666666"
     borderopacity="1.0"
     inkscape:pageopacity="0.0"
     inkscape:pageshadow="2"
     inkscape:zoom="11.197802"
     inkscape:cx="1.66683"
     inkscape:cy="16.089303"
     inkscape:current-layer="layer2"
     showgrid="true"
     inkscape:grid-bbox="true"
     inkscape:document-units="px"
     inkscape:window-width="1920"
     inkscape:window-height="1053"
     inkscape:window-x="1024"
     inkscape:window-y="27"
     inkscape:snap-bbox="false"
     inkscape:window-maximized="1" />
  <metadata
     id="metadata3552">
    <rdf:RDF>
      <cc:Work
         rdf:about="">
        <dc:format>image/svg+xml</dc:format>
        <dc:type
           rdf:resource="http://purl.org/dc/dcmitype/StillImage" />
        <dc:title></dc:title>
      </cc:Work>
    </rdf:RDF>
  </metadata>
  <g
     inkscape:groupmode="layer"
     id="layer2"
     inkscape:label="Layer">
    <rect
       style="fill:url(#linearGradient3870);fill-opacity:1.0;stroke:url(#linearGradient3862)"
       id="rect3070"
       width="31.97056"
       height="31.791954"
       x="0"
       y="0.029440064"
       ry="6.6977429" />
  </g>
  <g
     id="layer1"
     inkscape:label="Layer 1"
     inkscape:groupmode="layer">
    <g
       id="plane_0"
       transform="matrix(0.5993873,0,0,0.7165581,-77.398055,0.9589502)">
      <path
         sodipodi:nodetypes="ccccccccc"
         id="rect19992"
         d="M 145.78491,0 L 155.21509,2.5 C 156.89643,2.5 158.25,3.8535679 158.25,5.5349057 L 158.25,5.9650943 C 158.25,7.6464321 156.89643,9 155.21509,9 L 148.03491,9 C 146.35357,9 145,7.6464321 145,5.9650943 L 145,5.5349057 C 145,3.8535679 137.85357,-2.25 145.78491,0 z"
         style="fill:#babdb6;fill-opacity:1;fill-rule:nonzero;stroke:none;stroke-width:4;stroke-linecap:round;stroke-linejoin:bevel;stroke-miterlimit:4;stroke-dashoffset:0;stroke-opacity:1" />
      <path
         style="fill:#d3d7cf;fill-opacity:1;fill-rule:nonzero;stroke:none;stroke-width:4;stroke-linecap:round;stroke-linejoin:bevel;stroke-miterlimit:4;stroke-dashoffset:0;stroke-opacity:1"
         d="M 145.03472,0.25 L 152.57372,2.75 C 153.91788,2.75 155,4.1035679 155,5.7849057 L 155,6.2150943 C 155,7.8964321 153.91788,9.25 152.57372,9.25 L 146.8335,9.25 C 145.48934,9.25 144.40723,7.8964321 144.40723,6.2150943 L 144.40723,5.7849057 C 144.40723,4.1035679 138.69398,-2 145.03472,0.25 z"
         id="path20039"
         sodipodi:nodetypes="ccccccccc" />
      <g
         transform="matrix(1.4444445,0,0,0.8148148,-87.013889,-31.439815)"
         id="g18955">
        <path
           sodipodi:type="arc"
           style="opacity:1;fill:url(#radialGradient20060);fill-opacity:1;fill-rule:nonzero;stroke:none;stroke-width:4;stroke-linecap:round;stroke-linejoin:bevel;stroke-miterlimit:4;stroke-dasharray:none;stroke-dashoffset:0;stroke-opacity:1"
           id="path18937"
           sodipodi:cx="156.125"
           sodipodi:cy="51.625"
           sodipodi:rx="7.125"
           sodipodi:ry="7.125"
           d="m 163.25,51.625 c 0,3.935029 -3.18997,7.125 -7.125,7.125 -3.93503,0 -7.125,-3.189971 -7.125,-7.125 0,-3.935029 3.18997,-7.125 7.125,-7.125 3.93503,0 7.125,3.189971 7.125,7.125 z"
           transform="matrix(0.9473684,0,0,0.9473684,8.2171053,2.7171053)" />
        <path
           d="m 163.25,51.625 c 0,3.935029 -3.18997,7.125 -7.125,7.125 -3.93503,0 -7.125,-3.189971 -7.125,-7.125 0,-3.935029 3.18997,-7.125 7.125,-7.125 3.93503,0 7.125,3.189971 7.125,7.125 z"
           sodipodi:ry="7.125"
           sodipodi:rx="7.125"
           sodipodi:cy="51.625"
           sodipodi:cx="156.125"
           id="path18947"
           style="opacity:1;fill:url(#radialGradient20062);fill-opacity:1;fill-rule:nonzero;stroke:none;stroke-width:4;stroke-linecap:round;stroke-linejoin:bevel;stroke-miterlimit:4;stroke-dasharray:none;stroke-dashoffset:0;stroke-opacity:1"
           sodipodi:type="arc"
           transform="matrix(0.6491228,0,0,0.6491228,54.780702,18.114035)" />
        <path
           transform="matrix(0.4561403,0,0,0.4561403,84.910088,28.076754)"
           sodipodi:type="arc"
           style="opacity:1;fill:url(#radialGradient20064);fill-opacity:1;fill-rule:nonzero;stroke:none;stroke-width:4;stroke-linecap:round;stroke-linejoin:bevel;stroke-miterlimit:4;stroke-dasharray:none;stroke-dashoffset:0;stroke-opacity:1"
           id="path18951"
           sodipodi:cx="156.125"
           sodipodi:cy="51.625"
           sodipodi:rx="7.125"
           sodipodi:ry="7.125"
           d="m 163.25,51.625 c 0,3.935029 -3.18997,7.125 -7.125,7.125 -3.93503,0 -7.125,-3.189971 -7.125,-7.125 0,-3.935029 3.18997,-7.125 7.125,-7.125 3.93503,0 7.125,3.189971 7.125,7.125 z" />
      </g>
      <path
         id="path19974"
         d="M 162.375,1.75 C 161.56948,1.75 160.78053,1.7841938 160,1.8211596 C 159.84481,2.1356706 159.75,2.4647733 159.75,2.7936747 C 159.75,6.0932048 167.87,8.7710843 177.875,8.7710843 C 179.31908,8.7710843 180.71571,8.7104381 182.0625,8.6050452 C 180.79645,4.740413 172.47173,1.75 162.375,1.75 z"
         style="opacity:1;fill:#2e3436;fill-opacity:1;fill-rule:nonzero;stroke:none;stroke-width:4;stroke-linecap:round;stroke-linejoin:bevel;stroke-miterlimit:4;stroke-dasharray:none;stroke-dashoffset:0;stroke-opacity:1" />
      <path
         id="rect19987"
         d="M 140.53125,5.9999982 C 140.09641,5.9999982 139.75,6.3464102 139.75,6.7812482 L 139.75,14.468748 C 139.75,14.903586 140.09641,15.249998 140.53125,15.249998 L 145.46875,15.249998 C 145.90359,15.249998 146.25,14.903585 146.25,14.468748 L 146.25,14.249998 L 156.96875,14.249998 C 157.40359,14.249998 157.75,13.903585 157.75,13.468748 L 157.75,7.7812482 C 157.75,7.3464104 157.40359,6.9999982 156.96875,6.9999982 L 146.25,6.9999982 L 146.25,6.7812482 C 146.25,6.3464104 145.90359,5.9999982 145.46875,5.9999982 L 140.53125,5.9999982 z"
         style="opacity:1;fill:#2e3436;fill-opacity:1;fill-rule:nonzero;stroke:none;stroke-width:4;stroke-linecap:round;stroke-linejoin:bevel;stroke-miterlimit:4;stroke-dasharray:none;stroke-dashoffset:0;stroke-opacity:1" />
      <path
         id="path20034"
         d="M 140.53125,5.9999982 C 140.09641,5.9999982 139.75,6.3464102 139.75,6.7812482 L 139.75,14.468748 C 139.75,14.903586 140.09641,15.249998 140.53125,15.249998 L 145.46875,15.249998 C 145.90359,15.249998 146.25,14.903585 146.25,14.468748 L 146.25,14.249998 L 156.96875,14.249998 C 157.40359,14.249998 157.75,13.903585 157.75,13.468748 L 157.75,7.7812482 C 157.75,7.3464104 157.40359,6.9999982 156.96875,6.9999982 L 146.25,6.9999982 L 146.25,6.7812482 C 146.25,6.3464104 145.90359,5.9999982 145.46875,5.9999982 L 140.53125,5.9999982 z"
         style="opacity:1;fill:url(#linearGradient20066);fill-opacity:1;fill-rule:nonzero;stroke:none;stroke-width:4;stroke-linecap:round;stroke-linejoin:bevel;stroke-miterlimit:4;stroke-dasharray:none;stroke-dashoffset:0;stroke-opacity:1" />
      <path
         style="opacity:1;fill:url(#linearGradient20068);fill-opacity:1;fill-rule:nonzero;stroke:none;stroke-width:4;stroke-linecap:round;stroke-linejoin:bevel;stroke-miterlimit:4;stroke-dasharray:none;stroke-dashoffset:0;stroke-opacity:1"
         d="M 140.53125,5.9999982 C 140.09641,5.9999982 139.75,6.3464102 139.75,6.7812482 L 139.75,14.468748 C 139.75,14.903586 140.09641,15.249998 140.53125,15.249998 L 145.46875,15.249998 C 145.90359,15.249998 146.25,14.903585 146.25,14.468748 L 146.25,14.249998 L 156.96875,14.249998 C 157.40359,14.249998 157.75,13.903585 157.75,13.468748 L 157.75,7.7812482 C 157.75,7.3464104 157.40359,6.9999982 156.96875,6.9999982 L 146.25,6.9999982 L 146.25,6.7812482 C 146.25,6.3464104 145.90359,5.9999982 145.46875,5.9999982 L 140.53125,5.9999982 z"
         id="path20024" />
      <path
         sodipodi:nodetypes="ccscsscssc"
         id="path19978"
         d="M 160,1.8211596 C 151.00338,2.2472394 143.86094,5.0544739 142.6875,8.6050452 C 151.97905,8.8737394 156.5,10.184532 156.5,12.989458 C 156.5,14.13718 129.79308,19.197309 133.71875,22.823042 C 134.23294,22.845555 164.17041,16.680055 166.375,16.25 C 175.346,14.5 182.25,13.972 182.25,9.625 C 182.25,9.2785926 182.17213,8.9396799 182.0625,8.6050452 C 180.71571,8.7104381 179.31908,8.7710843 177.875,8.7710843 C 167.87,8.7710843 159.75,6.0932048 159.75,2.7936747 C 159.75,2.4647733 159.84481,2.1356706 160,1.8211596 z"
         style="opacity:1;fill:#babdb6;fill-opacity:1;fill-rule:nonzero;stroke:none;stroke-width:4;stroke-linecap:round;stroke-linejoin:bevel;stroke-miterlimit:4;stroke-dasharray:none;stroke-dashoffset:0;stroke-opacity:1" />
      <path
         style="opacity:1;fill:url(#linearGradient20070);fill-opacity:1;fill-rule:nonzero;stroke:none;stroke-width:4;stroke-linecap:round;stroke-linejoin:bevel;stroke-miterlimit:4;stroke-dasharray:none;stroke-dashoffset:0;stroke-opacity:1"
         d="M 160,1.8211596 C 151.00338,2.2472394 143.86094,5.0544739 142.6875,8.6050452 C 151.97905,8.8737394 156.5,10.184532 156.5,12.989458 C 156.5,14.13718 129.79308,19.197309 133.71875,22.823042 C 134.23294,22.845555 164.17041,16.680055 166.375,16.25 C 175.346,14.5 182.25,13.972 182.25,9.625 C 182.25,9.2785926 182.17213,8.9396799 182.0625,8.6050452 C 180.71571,8.7104381 179.31908,8.7710843 177.875,8.7710843 C 167.87,8.7710843 159.75,6.0932048 159.75,2.7936747 C 159.75,2.4647733 159.84481,2.1356706 160,1.8211596 z"
         id="path19994"
         sodipodi:nodetypes="ccscsscssc" />
      <path
         sodipodi:nodetypes="ccscsscssc"
         id="path20004"
         d="M 160,1.8211596 C 151.00338,2.2472394 143.86094,5.0544739 142.6875,8.6050452 C 151.97905,8.8737394 156.5,10.184532 156.5,12.989458 C 156.5,14.13718 129.79308,19.197309 133.71875,22.823042 C 134.23294,22.845555 164.17041,16.680055 166.375,16.25 C 175.346,14.5 182.25,13.972 182.25,9.625 C 182.25,9.2785926 182.17213,8.9396799 182.0625,8.6050452 C 180.71571,8.7104381 179.31908,8.7710843 177.875,8.7710843 C 167.87,8.7710843 159.75,6.0932048 159.75,2.7936747 C 159.75,2.4647733 159.84481,2.1356706 160,1.8211596 z"
         style="opacity:1;fill:url(#linearGradient20072);fill-opacity:1;fill-rule:nonzero;stroke:none;stroke-width:4;stroke-linecap:round;stroke-linejoin:bevel;stroke-miterlimit:4;stroke-dasharray:none;stroke-dashoffset:0;stroke-opacity:1" />
      <path
         style="opacity:1;fill:url(#radialGradient20074);fill-opacity:1;fill-rule:nonzero;stroke:none;stroke-width:4;stroke-linecap:round;stroke-linejoin:bevel;stroke-miterlimit:4;stroke-dasharray:none;stroke-dashoffset:0;stroke-opacity:1"
         d="M 160,1.8211596 C 151.00338,2.2472394 143.86094,5.0544739 142.6875,8.6050452 C 151.97905,8.8737394 156.5,10.184532 156.5,12.989458 C 156.5,14.13718 129.79308,19.197309 133.71875,22.823042 C 134.23294,22.845555 164.17041,16.680055 166.375,16.25 C 175.346,14.5 182.25,13.972 182.25,9.625 C 182.25,9.2785926 182.17213,8.9396799 182.0625,8.6050452 C 180.71571,8.7104381 179.31908,8.7710843 177.875,8.7710843 C 167.87,8.7710843 159.75,6.0932048 159.75,2.7936747 C 159.75,2.4647733 159.84481,2.1356706 160,1.8211596 z"
         id="path20008"
         sodipodi:nodetypes="ccscsscssc" />
      <path
         style="opacity:1;fill:url(#radialGradient20076);fill-opacity:1;fill-rule:nonzero;stroke:none;stroke-width:4;stroke-linecap:round;stroke-linejoin:bevel;stroke-miterlimit:4;stroke-dasharray:none;stroke-dashoffset:0;stroke-opacity:1"
         d="M 163.22794,2.25 C 162.46755,2.25 161.7228,2.2805412 160.98599,2.3135583 C 160.8395,2.5944728 160.75,2.8884204 160.75,3.1821882 C 160.75,6.1292589 168.4151,8.5210843 177.85959,8.5210843 C 179.22277,8.5210843 180.54116,8.4669164 181.8125,8.3727817 C 180.61738,4.9209738 172.75903,2.25 163.22794,2.25 z"
         id="path20014" />
    </g>
    <g
       id="bomb_0"
       transform="matrix(0.4957173,0,0,0.3369935,-68.009476,4.9806059)"
       inkscape:label="#g17682">
      <path
         transform="matrix(1.1420466,0,0,2.1761692,41.639576,-35.57935)"
         style="fill:url(#radialGradient4195);fill-opacity:1;fill-rule:nonzero;stroke:none;stroke-width:2;stroke-linecap:round;stroke-linejoin:round;stroke-miterlimit:4;stroke-dashoffset:0;stroke-opacity:1"
         d="M 113.84375,29.96875 C 113.77791,30.32437 113.83468,30.717732 113.625,31.03125 C 113.64937,31.462155 113.58398,31.899019 113.375,32.28125 C 113.34375,32.385417 113.3125,32.489583 113.28125,32.59375 C 113.30922,32.321628 113.29669,32.037701 113.40625,31.78125 L 113.40625,31.65625 C 113.36864,31.581169 113.27856,31.459403 113.40625,31.40625 C 113.50333,31.121253 113.32973,30.824596 113.375,30.53125 L 113.34375,30.46875 L 113.25,30.5 L 113.33936,30.619142 L 113.34375,30.625 L 113.19771,30.595793 C 113.14981,30.70179 113.2522,30.90451 113.125,31 L 113.1875,31.125 L 113.25,31.1875 C 113.23237,31.274835 113.13409,31.304034 113.09375,31.375 C 113.19408,31.426263 112.99306,31.452736 113.0625,31.53125 L 113.0625,31.59375 L 112.96875,31.59375 C 112.84583,31.694946 113.09167,31.867554 112.96875,31.96875 C 112.90955,31.889508 112.73348,31.730146 112.84375,31.625 C 112.85083,31.488135 112.84391,31.352429 112.8125,31.21875 L 112.75,31.1875 C 112.82912,31.177163 112.72194,31.011929 112.84375,31.125 C 112.89603,31.087383 112.90711,30.936897 112.8125,30.9375 C 112.756,30.915046 112.71652,31.013022 112.78125,31.03125 C 112.7418,31.132149 112.52335,30.975865 112.5625,31.125 C 112.60164,31.151935 112.62247,31.223065 112.6875,31.1875 C 112.75024,31.253521 112.72633,31.393354 112.625,31.40625 C 112.68237,31.44427 112.74342,31.587306 112.625,31.59375 L 112.625,31.71875 C 112.64578,31.827672 112.45078,31.611378 112.5625,31.78125 C 112.58507,31.851092 112.69468,31.817533 112.65625,31.90625 C 112.59307,32.119775 112.64074,32.344277 112.625,32.5625 C 112.58443,32.669385 112.52125,32.470949 112.53125,32.46875 C 112.41892,32.48528 112.45966,32.264488 112.5625,32.3125 C 112.66714,32.229175 112.49531,32.119982 112.40625,32.15625 L 112.40625,32.0625 C 112.31328,32.08945 112.1942,32.21867 112.28125,32.3125 C 112.22116,32.431129 112.20757,32.557306 112.21875,32.6875 L 112.09375,32.75 C 112.11536,32.998071 112.26686,33.25168 112.1875,33.5 C 112.22016,33.612842 112.30633,33.691448 112.375,33.78125 L 112.22962,33.813557 L 112.09375,33.84375 C 112.0478,33.980715 112.22754,34.049889 112.1875,34.1875 L 112.21671,34.333535 C 112.2048,34.373848 112.07294,34.383985 112.125,34.46875 L 112.15625,34.53125 L 112.09375,34.59375 C 111.9999,34.587998 112.13912,34.736378 112.1875,34.6875 C 112.15104,34.640625 112.25521,34.640625 112.21875,34.6875 C 112.29646,34.607186 112.46981,34.658913 112.4375,34.78125 C 112.35464,34.870774 112.45786,35.004226 112.375,35.09375 C 112.36466,35.014631 112.19943,35.121814 112.3125,35 C 112.25,34.96875 112.1875,34.9375 112.125,34.90625 C 112.11426,34.969577 112.03844,34.992701 112.0625,35.0625 C 111.98774,35.086002 111.98101,34.945248 111.90625,34.96875 C 111.93229,35.204602 111.78019,35.420086 111.8125,35.65625 C 111.73224,35.745105 111.58389,35.616213 111.53125,35.75 C 111.65907,36.040131 111.80301,36.332529 111.8125,36.65625 C 111.9485,36.65937 111.85628,36.862667 111.96875,36.90625 C 112.17318,37.178838 112.45193,37.383558 112.65625,37.65625 C 112.79347,37.723948 112.92578,37.851668 113.09375,37.8125 C 113.27751,37.854907 113.4697,37.917133 113.65625,37.84375 C 113.98134,37.827164 114.28993,37.704114 114.5625,37.53125 L 114.5625,37.46875 C 114.63334,37.438914 114.79882,37.462872 114.8125,37.34375 C 114.93596,37.081345 115.29182,36.92309 115.25,36.59375 C 115.33355,36.468272 115.40242,36.230947 115.59375,36.25 L 115.6875,36.15625 L 115.75,36.03125 C 115.6334,36.105682 115.46021,36.133174 115.40625,36.28125 L 115.375,36.28125 C 115.32292,35.541667 115.27083,34.802083 115.21875,34.0625 L 115.15625,34.1875 L 115.125,34.28125 L 115.0625,34.15625 C 115.06684,34.054609 114.98324,34.214407 114.9375,34.15625 L 114.90625,34.125 C 114.94415,34.014866 115.03226,33.841607 114.90625,33.75 C 114.81003,33.564092 114.93068,33.376187 114.90625,33.1875 C 114.93323,32.708693 114.9435,32.229523 114.9375,31.75 L 114.875,31.84375 C 114.89583,31.510417 114.91667,31.177083 114.9375,30.84375 C 114.88306,31.336093 114.81148,31.825877 114.71875,32.3125 C 114.71875,32.166667 114.71875,32.020833 114.71875,31.875 C 114.66667,32.270833 114.61458,32.666667 114.5625,33.0625 L 114.53329,32.916465 L 114.53125,32.90625 C 114.53125,33.052083 114.53125,33.197917 114.53125,33.34375 L 114.40625,33.3125 L 114.28125,33.3125 C 114.32292,33.208333 114.36458,33.104167 114.40625,33 L 114.34375,32.9375 C 114.22573,32.981266 114.04589,32.820858 114.15625,32.71875 L 114.25,32.71875 C 114.3282,32.747175 114.23934,32.630855 114.3125,32.625 C 114.34353,32.679962 114.43295,32.726322 114.40625,32.625 C 114.46934,32.656957 114.51297,32.502399 114.40625,32.5625 L 114.375,32.625 C 114.40015,32.585861 114.3619,32.512574 114.3125,32.53125 C 114.22732,32.404399 114.31713,32.258151 114.3125,32.125 L 114.34375,32.0625 C 114.40248,32.058555 114.50762,32.090844 114.375,31.9375 C 114.36505,31.812443 114.40034,31.681816 114.34375,31.5625 L 114.37296,31.416465 C 114.40043,31.372472 114.55108,31.462962 114.5,31.34375 C 114.53405,31.422707 114.6715,31.364209 114.625,31.28125 C 114.63718,31.230502 114.53806,31.103932 114.625,31.0625 L 114.53125,31.0625 C 114.44176,31.10006 114.55946,30.916174 114.53125,30.9375 L 114.5625,30.84375 C 114.64502,30.779868 114.55972,30.646468 114.59375,30.5625 L 114.5625,30.5625 C 114.4532,30.849174 114.35895,31.140679 114.28125,31.4375 C 114.16526,31.533849 114.07772,31.653525 114,31.78125 C 113.8824,31.707723 114.10944,31.571955 114,31.5 C 113.93334,31.535256 113.81278,31.698699 113.75,31.5625 C 113.8003,31.470537 113.6372,31.466963 113.6875,31.375 C 113.86076,31.398681 113.78578,31.130924 113.90625,31.0625 C 113.9746,30.826849 113.89933,30.579312 113.96875,30.34375 C 113.9572,30.193715 113.92015,30.04912 113.875,29.90625 L 113.84375,29.96875 z M 113.25,30.5 C 113.24191,30.471392 113.22229,30.351948 113.15625,30.375 L 113.15625,30.3125 C 113.05161,30.27604 112.97809,30.391909 113.0625,30.46875 C 113.09048,30.482435 113.17729,30.437296 113.15625,30.5 L 113.25,30.5 z M 114.09375,31.8125 C 114.20197,31.917444 114.0112,32.06074 114.0625,32.1875 L 114,32.3125 L 113.9375,32.40625 C 113.86637,32.385417 113.94613,32.302083 113.875,32.28125 C 113.82666,32.140481 114.00268,32.001874 113.90625,31.875 C 113.9656,31.841005 113.98693,32.001782 114.03125,31.90625 L 114.03125,31.8125 L 114.09375,31.8125 z M 114.96875,34.25 L 115,34.25 C 114.94792,34.4375 114.89583,34.625 114.84375,34.8125 C 114.875,34.625 114.90625,34.4375 114.9375,34.25 L 114.96875,34.25 z"
         id="path4172"
         sodipodi:nodetypes="csssssccsssssssc" />
      <path
         transform="matrix(0.9758996,0,0,1.8595762,60.457995,-24.565523)"
         style="fill:url(#radialGradient4208);fill-opacity:1;fill-rule:nonzero;stroke:none;stroke-width:2;stroke-linecap:round;stroke-linejoin:round;stroke-miterlimit:4;stroke-dashoffset:0;stroke-opacity:1"
         d="M 113.1875,31.46875 C 113.18887,31.477218 113.18858,31.491639 113.1875,31.5 C 113.18347,31.502564 113.19083,31.529407 113.1875,31.53125 L 113.1875,31.59375 C 113.18878,31.604127 113.18878,31.614623 113.1875,31.625 C 113.18878,31.635377 113.18878,31.645873 113.1875,31.65625 C 113.17898,31.668403 113.1684,31.678977 113.15625,31.6875 C 113.13872,31.703522 113.11708,31.714343 113.09375,31.71875 C 113.10911,31.752975 113.11764,31.813677 113.125,31.875 C 113.13236,31.936323 113.12312,32.012591 113.0625,32.0625 C 113.05398,32.074653 113.0434,32.085227 113.03125,32.09375 C 113.02087,32.095029 113.01038,32.095029 113,32.09375 C 112.98962,32.095029 112.97913,32.095029 112.96875,32.09375 C 112.95837,32.095029 112.94788,32.095029 112.9375,32.09375 C 112.92712,32.095029 112.91663,32.095029 112.90625,32.09375 C 112.8941,32.085227 112.88352,32.074653 112.875,32.0625 C 112.87372,32.052123 112.87372,32.041627 112.875,32.03125 C 112.86609,32.019317 112.80617,31.998688 112.78125,31.96875 C 112.74205,32.136694 112.76656,32.332876 112.75,32.5625 C 112.75128,32.572877 112.75128,32.583373 112.75,32.59375 C 112.74065,32.618385 112.71927,32.660226 112.6875,32.6875 C 112.65573,32.714774 112.60456,32.731976 112.5625,32.71875 C 112.47837,32.692299 112.45315,32.65414 112.4375,32.625 C 112.42185,32.59586 112.41368,32.556116 112.40625,32.53125 C 112.40254,32.518817 112.40859,32.514956 112.40625,32.5 C 112.40583,32.501903 112.3754,32.498089 112.375,32.5 C 112.36256,32.55923 112.33789,32.619306 112.34375,32.6875 C 112.34503,32.697877 112.34503,32.708373 112.34375,32.71875 C 112.34503,32.729127 112.34503,32.739623 112.34375,32.75 C 112.33523,32.762153 112.32465,32.772727 112.3125,32.78125 C 112.30212,32.782529 112.29163,32.782529 112.28125,32.78125 C 112.28253,32.791627 112.28253,32.802123 112.28125,32.8125 L 112.25,32.84375 C 112.26678,32.924561 112.28894,32.997356 112.3125,33.09375 C 112.34052,33.208398 112.33908,33.33405 112.3125,33.46875 C 112.33288,33.539163 112.39061,33.616557 112.46875,33.71875 C 112.4809,33.727273 112.49148,33.737847 112.5,33.75 C 112.50128,33.760377 112.50128,33.770873 112.5,33.78125 C 112.50128,33.791627 112.50128,33.802123 112.5,33.8125 C 112.49148,33.824653 112.4809,33.835227 112.46875,33.84375 C 112.47003,33.854127 112.47003,33.864623 112.46875,33.875 C 112.46023,33.887153 112.44965,33.897727 112.4375,33.90625 C 112.42712,33.907529 112.41663,33.907529 112.40625,33.90625 L 112.25,33.9375 C 112.26688,33.96298 112.29489,34.01558 112.3125,34.0625 C 112.32307,34.090652 112.31249,34.119854 112.3125,34.15625 C 112.31251,34.180514 112.31969,34.194038 112.3125,34.21875 L 112.34375,34.3125 C 112.34503,34.322877 112.34503,34.333373 112.34375,34.34375 C 112.34503,34.354127 112.34503,34.364623 112.34375,34.375 C 112.32948,34.423315 112.30331,34.423461 112.28125,34.4375 C 112.27574,34.44101 112.2861,34.466249 112.28125,34.46875 C 112.28253,34.479127 112.28253,34.489623 112.28125,34.5 C 112.28253,34.510377 112.28253,34.520873 112.28125,34.53125 C 112.33122,34.522456 112.35995,34.514072 112.40625,34.53125 C 112.45255,34.548428 112.50042,34.575379 112.53125,34.625 C 112.56208,34.674621 112.57835,34.752496 112.5625,34.8125 C 112.55809,34.835832 112.54727,34.857475 112.53125,34.875 C 112.52928,34.877126 112.52616,34.881756 112.53125,34.9375 C 112.53634,34.993244 112.54964,35.100102 112.46875,35.1875 C 112.46023,35.199653 112.44965,35.210227 112.4375,35.21875 C 112.42712,35.220029 112.41663,35.220029 112.40625,35.21875 C 112.39587,35.220029 112.38538,35.220029 112.375,35.21875 C 112.36462,35.220029 112.35413,35.220029 112.34375,35.21875 C 112.33337,35.220029 112.32288,35.220029 112.3125,35.21875 C 112.31122,35.208373 112.31122,35.197877 112.3125,35.1875 C 112.30729,35.187807 112.28969,35.187567 112.28125,35.1875 C 112.27281,35.187433 112.26644,35.191506 112.25,35.1875 C 112.24178,35.185497 112.23023,35.193202 112.21875,35.1875 C 112.21301,35.184649 112.18786,35.156504 112.1875,35.15625 C 112.18727,35.156009 112.19314,35.134072 112.1875,35.125 C 112.18468,35.120464 112.15906,35.129544 112.15625,35.125 C 112.15753,35.135377 112.15753,35.145873 112.15625,35.15625 C 112.14773,35.168403 112.13715,35.178977 112.125,35.1875 C 112.11462,35.188779 112.10413,35.188779 112.09375,35.1875 C 112.06051,35.19795 112.03428,35.166458 112,35.15625 C 111.98853,35.221373 111.98404,35.287583 111.96875,35.34375 C 111.93817,35.456085 111.9257,35.538765 111.9375,35.625 C 111.93878,35.635377 111.93878,35.645873 111.9375,35.65625 C 111.93878,35.666627 111.93878,35.677123 111.9375,35.6875 C 111.93309,35.710832 111.92227,35.732475 111.90625,35.75 C 111.86276,35.798145 111.79625,35.808052 111.75,35.8125 C 111.73458,35.813983 111.73152,35.812758 111.71875,35.8125 C 111.82376,36.047529 111.91556,36.310586 111.9375,36.59375 C 111.95568,36.607764 111.98969,36.608003 112,36.625 C 112.03092,36.675991 112.02687,36.719001 112.03125,36.75 C 112.03344,36.765499 112.02949,36.7714 112.03125,36.78125 C 112.0434,36.789773 112.05398,36.800347 112.0625,36.8125 C 112.06378,36.822877 112.06378,36.833373 112.0625,36.84375 C 112.2394,37.079626 112.50716,37.268128 112.71875,37.53125 C 112.80134,37.571995 112.84812,37.62728 112.90625,37.65625 C 112.96438,37.68522 113.01565,37.698425 113.0625,37.6875 C 113.07288,37.686221 113.08337,37.686221 113.09375,37.6875 C 113.10413,37.686221 113.11462,37.686221 113.125,37.6875 C 113.31642,37.731676 113.48916,37.772183 113.625,37.71875 C 113.63538,37.717471 113.64587,37.717471 113.65625,37.71875 C 113.93015,37.704776 114.19469,37.612557 114.4375,37.46875 C 114.43622,37.458373 114.43622,37.447877 114.4375,37.4375 C 114.43622,37.427123 114.43622,37.416627 114.4375,37.40625 C 114.44602,37.394097 114.4566,37.383523 114.46875,37.375 C 114.47727,37.362847 114.48785,37.352273 114.5,37.34375 C 114.57949,37.31027 114.65497,37.320411 114.6875,37.3125 C 114.68622,37.302123 114.68622,37.291627 114.6875,37.28125 C 114.76515,37.116212 114.90866,37.010818 115,36.90625 C 115.09134,36.801682 115.13988,36.742206 115.125,36.625 C 115.12372,36.614623 115.12372,36.604127 115.125,36.59375 C 115.12372,36.583373 115.12372,36.572877 115.125,36.5625 C 115.13352,36.550347 115.1441,36.539773 115.15625,36.53125 C 115.17887,36.497283 115.21056,36.410173 115.25,36.34375 C 115.24872,36.333373 115.24872,36.322877 115.25,36.3125 C 115.24872,36.302123 115.24872,36.291627 115.25,36.28125 C 115.206,35.656416 115.169,35.031086 115.125,34.40625 C 115.11462,34.407529 115.10413,34.407529 115.09375,34.40625 C 115.05316,34.552384 115.00934,34.697621 114.96875,34.84375 C 114.96434,34.867082 114.95352,34.888725 114.9375,34.90625 C 114.92898,34.918403 114.9184,34.928977 114.90625,34.9375 C 114.89587,34.938779 114.88538,34.938779 114.875,34.9375 C 114.86462,34.938779 114.85413,34.938779 114.84375,34.9375 C 114.83337,34.938779 114.82288,34.938779 114.8125,34.9375 C 114.80212,34.938779 114.79163,34.938779 114.78125,34.9375 C 114.7691,34.928977 114.75852,34.918403 114.75,34.90625 C 114.73398,34.888725 114.72316,34.867082 114.71875,34.84375 C 114.71747,34.833373 114.71747,34.822877 114.71875,34.8125 C 114.71747,34.802123 114.71747,34.791627 114.71875,34.78125 C 114.75,34.59375 114.78125,34.40625 114.8125,34.21875 C 114.81122,34.208373 114.81122,34.197877 114.8125,34.1875 C 114.80212,34.188779 114.79163,34.188779 114.78125,34.1875 C 114.77997,34.177123 114.77997,34.166627 114.78125,34.15625 C 114.77997,34.145873 114.77997,34.135377 114.78125,34.125 C 114.77997,34.114623 114.77997,34.104127 114.78125,34.09375 C 114.8034,34.02937 114.8366,33.950719 114.84375,33.90625 C 114.8509,33.861781 114.86431,33.858698 114.84375,33.84375 C 114.83337,33.845029 114.82288,33.845029 114.8125,33.84375 C 114.80035,33.835227 114.78977,33.824653 114.78125,33.8125 C 114.71504,33.684581 114.73367,33.539094 114.75,33.4375 C 114.76633,33.335906 114.78933,33.281177 114.78125,33.21875 C 114.77997,33.208373 114.77997,33.197877 114.78125,33.1875 C 114.79583,32.928786 114.80767,32.665196 114.8125,32.40625 C 114.80212,32.407529 114.79163,32.407529 114.78125,32.40625 C 114.7799,32.416489 114.7826,32.427261 114.78125,32.4375 C 114.75242,32.656569 114.71632,32.874682 114.6875,33.09375 C 114.68878,33.104127 114.68878,33.114623 114.6875,33.125 C 114.67712,33.126279 114.66663,33.126279 114.65625,33.125 C 114.65625,33.135417 114.65625,33.145833 114.65625,33.15625 C 114.65625,33.21875 114.65625,33.28125 114.65625,33.34375 C 114.65753,33.354127 114.65753,33.364623 114.65625,33.375 C 114.65753,33.385377 114.65753,33.395873 114.65625,33.40625 C 114.64773,33.418403 114.63715,33.428977 114.625,33.4375 C 114.60747,33.453522 114.58583,33.464343 114.5625,33.46875 C 114.55212,33.470029 114.54163,33.470029 114.53125,33.46875 C 114.52087,33.470029 114.51038,33.470029 114.5,33.46875 L 114.40625,33.4375 L 114.375,33.4375 L 114.28125,33.4375 C 114.27087,33.438779 114.26038,33.438779 114.25,33.4375 C 114.23962,33.438779 114.22913,33.438779 114.21875,33.4375 C 114.2066,33.428977 114.19602,33.418403 114.1875,33.40625 C 114.17148,33.388725 114.16066,33.367082 114.15625,33.34375 C 114.15497,33.333373 114.15497,33.322877 114.15625,33.3125 C 114.15497,33.302123 114.15497,33.291627 114.15625,33.28125 C 114.15497,33.270873 114.15497,33.260377 114.15625,33.25 C 114.18068,33.18894 114.19433,33.123564 114.21875,33.0625 C 114.16514,33.045013 114.10036,33.007832 114.0625,32.96875 C 114.02464,32.929668 114.00728,32.878167 114,32.8125 C 113.99272,32.746833 114.00997,32.6736 114.0625,32.625 C 114.07288,32.623721 114.08337,32.623721 114.09375,32.625 C 114.10227,32.612847 114.11285,32.602273 114.125,32.59375 C 114.13538,32.592471 114.14587,32.592471 114.15625,32.59375 C 114.15811,32.589481 114.18514,32.598117 114.1875,32.59375 C 114.19105,32.5872 114.18281,32.568897 114.1875,32.5625 C 114.14287,32.472868 114.14469,32.383594 114.15625,32.3125 L 114.125,32.375 C 114.11462,32.376279 114.10413,32.376279 114.09375,32.375 L 114.03125,32.46875 C 114.03253,32.479127 114.03253,32.489623 114.03125,32.5 C 114.02273,32.512153 114.01215,32.522727 114,32.53125 C 113.98962,32.532529 113.97913,32.532529 113.96875,32.53125 C 113.95837,32.532529 113.94788,32.532529 113.9375,32.53125 C 113.92712,32.532529 113.91663,32.532529 113.90625,32.53125 C 113.86599,32.519458 113.83368,32.446762 113.8125,32.40625 C 113.80947,32.400463 113.78316,32.412052 113.78125,32.40625 C 113.77362,32.383041 113.78134,32.389455 113.78125,32.375 C 113.7691,32.366477 113.75852,32.355903 113.75,32.34375 C 113.74872,32.333373 113.74872,32.322877 113.75,32.3125 C 113.70618,32.184879 113.75742,32.093894 113.78125,32.03125 C 113.79317,31.999928 113.81188,31.978151 113.8125,31.96875 C 113.81312,31.959349 113.8185,31.945388 113.8125,31.9375 C 113.80035,31.928977 113.78977,31.918403 113.78125,31.90625 C 113.77997,31.895873 113.77997,31.885377 113.78125,31.875 C 113.77997,31.864623 113.77997,31.854127 113.78125,31.84375 C 113.78977,31.831597 113.80035,31.821023 113.8125,31.8125 C 113.81122,31.802123 113.81122,31.791627 113.8125,31.78125 C 113.82102,31.769097 113.8316,31.758523 113.84375,31.75 C 113.82274,31.754395 113.80781,31.754113 113.78125,31.75 C 113.75094,31.745305 113.74291,31.706286 113.71875,31.6875 C 113.67891,31.900469 113.60366,32.116003 113.5,32.3125 C 113.49713,32.322057 113.50287,32.334193 113.5,32.34375 C 113.47162,32.43836 113.43463,32.53039 113.40625,32.625 C 113.40753,32.635377 113.40753,32.645873 113.40625,32.65625 C 113.39773,32.668403 113.38715,32.678977 113.375,32.6875 C 113.36648,32.699653 113.3559,32.710227 113.34375,32.71875 C 113.33337,32.720029 113.32288,32.720029 113.3125,32.71875 C 113.30212,32.720029 113.29163,32.720029 113.28125,32.71875 C 113.27087,32.720029 113.26038,32.720029 113.25,32.71875 C 113.23962,32.720029 113.22913,32.720029 113.21875,32.71875 C 113.2066,32.710227 113.19602,32.699653 113.1875,32.6875 C 113.18622,32.677123 113.18622,32.666627 113.1875,32.65625 C 113.17535,32.647727 113.16477,32.637153 113.15625,32.625 C 113.15497,32.614623 113.15497,32.604127 113.15625,32.59375 C 113.18108,32.352187 113.18252,32.053242 113.28125,31.78125 L 113.28125,31.71875 C 113.26835,31.693001 113.23816,31.642619 113.21875,31.5625 C 113.21293,31.538464 113.21566,31.49975 113.21875,31.46875 C 113.21407,31.475001 113.19198,31.464717 113.1875,31.46875 z M 114.21875,31.6875 C 114.21007,31.698591 114.19591,31.707252 114.1875,31.71875 C 114.23845,31.768162 114.25362,31.847622 114.25,31.90625 C 114.24588,31.803483 114.22803,31.746347 114.21875,31.6875 z M 114.40625,32.65625 C 114.46058,32.686551 114.47827,32.682137 114.46875,32.6875 L 114.46875,32.65625 L 114.40625,32.65625 z"
         id="path4201" />
      <path
         transform="matrix(0.7641031,0,0,1.6751806,84.555771,-17.00694)"
         d="m 115.39811,36.03302 c 0,1.019643 -0.82658,1.846226 -1.84622,1.846226 -1.01965,0 -1.84623,-0.826583 -1.84623,-1.846226 0,-1.019643 0.82658,-1.846226 1.84623,-1.846226 1.01964,0 1.84622,0.826583 1.84622,1.846226 z"
         sodipodi:ry="1.8462265"
         sodipodi:rx="1.8462265"
         sodipodi:cy="36.03302"
         sodipodi:cx="113.55189"
         id="path4174"
         style="opacity:1;fill:url(#radialGradient4183);fill-opacity:1;fill-rule:nonzero;stroke:none;stroke-width:2;stroke-linecap:round;stroke-linejoin:round;stroke-miterlimit:4;stroke-dasharray:none;stroke-dashoffset:0;stroke-opacity:1"
         sodipodi:type="arc" />
    </g>
    <g
       id="g3630"
       transform="matrix(0.1276503,0,0,0.1306415,0.7470213,13.067192)">
      <path
         style="opacity:1;fill:#382509;fill-opacity:1;fill-rule:nonzero;stroke:none;stroke-width:4;stroke-linecap:round;stroke-linejoin:bevel;stroke-miterlimit:4;stroke-dasharray:none;stroke-dashoffset:0;stroke-opacity:1"
         d="M 109.1875,72.5625 C 107.31271,72.965531 105.60737,73.90348 104.03125,74.96875 C 103.04265,75.294271 102.29758,76.050781 101.53125,76.71875 C 100.42998,77.122293 99.252887,76.595364 98.127956,76.856932 C 96.867896,76.900506 95.78145,77.710305 95.140684,78.755136 C 94.454242,79.652548 93.575671,80.363302 92.605528,80.928078 C 90.821186,82.358645 89.862628,84.522477 89.207706,86.656612 C 88.559362,88.403088 87.665747,90.444069 85.6875,90.96875 C 84.688335,91.254165 83.490678,91.458737 82.982245,92.495382 C 82.339705,93.475228 82.220734,94.945847 83.170697,95.775079 C 84.574917,97.627341 85.785453,99.615414 87.08638,101.53525 C 87.64976,102.2438 88.191318,103.01886 89,103.46875 C 90.419762,103.56222 90.995894,101.94652 92.163373,101.43855 C 94.050003,100.44722 96.541537,100.79932 98.09375,102.25 C 99.594208,105.54807 98.752962,109.25456 99.375,112.71875 C 99.459694,114.50104 98.302461,116.30532 96.547671,116.78919 C 93.81975,117.95644 90.757735,117.48951 87.96875,116.8125 C 86.938497,116.59088 85.855136,116.59577 84.84375,116.90625 C 83.762689,118.10647 84.079551,119.83314 83.65625,121.28125 C 83.437053,122.84437 83.603427,124.74214 82.25,125.84375 C 81.511449,126.50935 80.461228,127.31283 80.65625,128.4375 C 81.320794,130.20718 83.333621,130.68306 84.875,131.40625 C 86.281664,131.95129 87.69699,132.63009 89.183747,132.85338 C 90.562508,132.70418 91.707468,131.742 92.5,130.65625 C 93.635873,129.88416 94.918967,130.81111 96.09375,130.96875 C 98.344792,131.4346 100.96882,131.27156 102.75,132.96875 C 103.97447,134.27387 103.38487,136.50838 104.90625,137.625 C 106.49251,138.92934 108.73745,138.47615 110.5,137.8125 C 112.02434,137.31369 114.01672,137.24448 115.15625,138.5625 C 115.84538,139.23774 117.21601,139.66946 117.86816,138.72108 C 119.27563,137.05124 120.91021,135.21934 123.21875,134.96875 C 124.65443,134.76519 126.17401,134.93349 127.53125,134.34375 C 128.41603,133.35416 127.73487,131.97676 127.25,130.96875 C 126.54791,129.17637 125.33944,127.41491 125.5625,125.40625 C 126.08883,124.20861 127.75725,123.88809 128.78125,124.625 C 130.83321,125.51834 132.27174,127.29457 133.8125,128.84375 C 134.7644,129.35781 135.72652,128.45201 136.25,127.71875 C 137.69929,126.53899 139.73697,126.9024 141.34375,127.53125 C 142.25749,127.75203 143.55161,127.74249 143.90625,128.8125 C 144.50336,130.59899 144.57202,132.78426 146.1875,134.03125 C 147.01009,134.96754 148.66066,135.44066 149.59375,134.40625 C 151.89147,132.70987 153.96341,130.27207 154.1875,127.3125 C 154.17693,125.82734 153.70368,124.37198 152.90625,123.125 C 152.40711,121.66747 153.62832,120.32573 154.71875,119.53125 C 157.08963,117.74556 159.80148,116.50361 162.3125,114.9375 C 163.59876,113.54308 163.36537,111.46456 162.6875,109.84375 C 161.94101,107.32293 162.48902,104.60978 163.63538,102.2987 C 164.15073,101.22334 164.10195,99.556465 162.87731,98.991123 C 160.78356,97.540894 158.01002,97.947871 155.75701,98.776093 C 153.0149,99.746923 150.19568,100.56408 147.59606,101.88388 C 146.08999,102.77181 144.89636,104.53985 145.3712,106.33922 C 145.6319,108.00463 146.17899,109.61906 146.50755,111.26499 C 146.86282,112.03134 147.31033,113.21804 146.40625,113.78125 C 145.52993,114.32669 144.2946,114.27 143.68168,115.22457 C 142.8804,116.04379 142.40616,117.15471 142.25,118.28125 C 141.65277,119.27115 140.48168,119.70634 139.84375,120.65625 C 138.57219,121.63929 136.94727,120.80772 135.60466,120.44481 C 132.83519,119.59379 130.00611,120.78793 127.54741,122.00731 C 125.21809,122.9649 122.73436,123.44698 120.28125,123.96875 C 119.25947,124.0304 118.18934,124.05461 117.3125,124.65625 C 116.32034,125.23673 115.18513,124.94443 114.37562,124.21245 C 113.36141,123.52887 112.35115,122.77344 111.125,122.53125 C 109.94001,122.08037 109.80935,120.36262 108.47676,120.17388 C 107.35996,119.90579 105.97299,119.99627 105.24418,118.93168 C 104.38084,117.9705 103.35267,117.14239 102.11577,116.72976 C 101.21372,116.16968 101.4486,114.994 101.75714,114.16276 C 102.14769,112.72051 102.13569,111.20585 101.8053,109.75697 C 101.68839,108.48197 101.5059,107.21405 101.40625,105.9375 C 101.89024,104.42114 103.65385,103.90379 105.09375,103.90625 C 107.61586,103.7617 110.41187,103.45394 112.28125,101.5625 C 114.49956,99.53103 115.54063,96.399047 115.15625,93.4375 C 115.19984,92.287369 116.42565,91.713855 117.32173,91.261009 C 118.92448,90.592848 119.81338,88.873593 119.83558,87.193192 C 119.80047,85.857346 119.55783,84.534787 119.54113,83.197457 C 119.57586,81.804433 118.79978,80.497462 117.6323,79.76525 C 116.25174,78.737046 114.89031,77.585191 114.08268,76.03504 C 113.22208,74.870685 112.86062,73.158805 111.40625,72.5625 C 110.70986,72.304908 109.90709,72.457212 109.1875,72.5625 z"
         id="path3632" />
      <path
         sodipodi:type="arc"
         style="opacity:1;fill:url(#radialGradient3678);fill-opacity:1;fill-rule:nonzero;stroke:none;stroke-width:4;stroke-linecap:round;stroke-linejoin:bevel;stroke-miterlimit:4;stroke-dasharray:none;stroke-dashoffset:0;stroke-opacity:1"
         id="path3634"
         sodipodi:cx="122.48218"
         sodipodi:cy="110.40285"
         sodipodi:rx="47.784527"
         sodipodi:ry="47.784527"
         d="m 170.2667,110.40285 c 0,26.39066 -21.39386,47.78452 -47.78452,47.78452 -26.390668,0 -47.784529,-21.39386 -47.784529,-47.78452 0,-26.390668 21.393861,-47.78453 47.784529,-47.78453 26.39066,0 47.78452,21.393862 47.78452,47.78453 z"
         transform="matrix(0.5585318,0,0,0.4571282,54.079528,56.365138)" />
      <path
         id="path3636"
         d="M 144.99713,109.57804 C 148.76083,104.77546 148.32494,97.469217 144.00489,93.285095 C 140.71204,90.095838 136.11625,89.638609 132.4507,91.723819 C 134.34199,92.037614 139.21069,92.897615 140.75844,94.396676 C 145.07847,98.580789 145.65939,104.40448 141.8957,109.20706 C 140.99575,110.35544 136.76545,112.74685 135.61454,113.39816 C 139.01149,113.97349 142.57443,112.6695 144.99713,109.57804 z"
         style="opacity:1;fill:#974a00;fill-opacity:1;fill-rule:nonzero;stroke:none;stroke-width:4;stroke-linecap:round;stroke-linejoin:bevel;stroke-miterlimit:4;stroke-dasharray:none;stroke-dashoffset:0;stroke-opacity:1"
         inkscape:transform-center-x="-19.178994"
         inkscape:transform-center-y="-4.5671563"
         sodipodi:nodetypes="cscsscc" />
      <path
         style="opacity:1;fill:#803f00;fill-opacity:1;fill-rule:nonzero;stroke:none;stroke-width:4;stroke-linecap:round;stroke-linejoin:bevel;stroke-miterlimit:4;stroke-dasharray:none;stroke-dashoffset:0;stroke-opacity:1"
         d="M 96.861756,99.016875 C 96.678804,100.35326 96.574078,101.72536 96.574078,103.11522 C 96.574078,118.73138 108.52374,131.4 123.25616,131.4 C 137.98859,131.4 149.96222,118.73138 149.96222,103.11522 C 149.96222,101.72536 149.85749,100.35326 149.67455,99.016875 C 147.80189,112.69585 136.67738,123.20331 123.25616,123.20331 C 109.83494,123.20331 98.734409,112.69585 96.861756,99.016875 z"
         id="path3638" />
      <path
         id="path3640"
         d="M 104.36155,90.221309 C 99.572787,91.94725 97.069974,97.236631 98.795917,102.02538 C 100.11148,105.67552 103.50071,107.98152 107.1566,108.11032 C 105.8107,107.07364 102.36626,104.36846 101.74791,102.65279 C 100.02197,97.864021 101.83571,93.547009 106.62448,91.821069 C 107.76953,91.408372 111.98281,91.567562 113.12937,91.610377 C 110.71655,89.740189 107.44411,89.110312 104.36155,90.221309 z"
         style="opacity:1;fill:#974a00;fill-opacity:1;fill-rule:nonzero;stroke:none;stroke-width:4;stroke-linecap:round;stroke-linejoin:bevel;stroke-miterlimit:4;stroke-dasharray:none;stroke-dashoffset:0;stroke-opacity:1"
         inkscape:transform-center-x="16.259846"
         inkscape:transform-center-y="-3.8875753"
         sodipodi:nodetypes="cscsscc" />
      <path
         id="path3642"
         d="M 113.03061,118.89429 C 117.19668,122.84321 124.74457,123.45667 129.86641,120.24464 C 133.77043,117.79634 135.13994,113.83533 133.73002,110.34241 C 133.03811,111.95536 131.20364,116.10044 129.36863,117.25121 C 124.24679,120.46324 118.18463,120.17865 114.01856,116.22974 C 113.0224,115.2855 111.41064,111.25648 110.97143,110.16024 C 109.71673,113.05567 110.34888,116.35235 113.03061,118.89429 z"
         style="opacity:1;fill:#590000;fill-opacity:1;fill-rule:nonzero;stroke:none;stroke-width:4;stroke-linecap:round;stroke-linejoin:bevel;stroke-miterlimit:4;stroke-dasharray:none;stroke-dashoffset:0;stroke-opacity:1"
         inkscape:transform-center-x="-1.4503285"
         inkscape:transform-center-y="18.088784"
         sodipodi:nodetypes="cscsscc" />
      <path
         sodipodi:nodetypes="cscsscc"
         inkscape:transform-center-y="10.956709"
         inkscape:transform-center-x="11.27726"
         style="opacity:1;fill:#ac4311;fill-opacity:1;fill-rule:nonzero;stroke:none;stroke-width:4;stroke-linecap:round;stroke-linejoin:bevel;stroke-miterlimit:4;stroke-dasharray:none;stroke-dashoffset:0;stroke-opacity:1"
         d="M 100.87269,105.02046 C 99.980787,110.032 103.31756,114.83903 108.32911,115.73094 C 112.14906,116.41077 115.83796,114.62289 117.77265,111.51821 C 116.2029,112.16788 112.14047,113.80456 110.34497,113.485 C 105.33343,112.5931 102.49588,108.86823 103.38779,103.85669 C 103.60105,102.65836 105.84003,99.085671 106.44888,98.113191 C 103.62463,99.272031 101.44682,101.7945 100.87269,105.02046 z"
         id="path3644" />
      <path
         sodipodi:nodetypes="cscsscc"
         inkscape:transform-center-y="9.0506922"
         inkscape:transform-center-x="-12.890167"
         style="opacity:1;fill:#590000;fill-opacity:1;fill-rule:nonzero;stroke:none;stroke-width:4;stroke-linecap:round;stroke-linejoin:bevel;stroke-miterlimit:4;stroke-dasharray:none;stroke-dashoffset:0;stroke-opacity:1"
         d="M 134.42631,116.97093 C 139.51625,117.02998 143.71186,112.95095 143.7709,107.86099 C 143.8159,103.98128 141.44798,100.63502 138.06834,99.234958 C 138.96634,100.6771 141.24628,104.41661 141.22512,106.2402 C 141.16608,111.33015 137.95627,114.73946 132.86632,114.68041 C 131.64924,114.66629 127.75808,113.04271 126.69902,112.60136 C 128.30479,115.19767 131.14988,116.93292 134.42631,116.97093 z"
         id="path3646" />
      <path
         sodipodi:nodetypes="cscsscc"
         inkscape:transform-center-y="-8.179197"
         inkscape:transform-center-x="-3.8195745"
         style="opacity:1;fill:#974a00;fill-opacity:1;fill-rule:nonzero;stroke:none;stroke-width:4;stroke-linecap:round;stroke-linejoin:bevel;stroke-miterlimit:4;stroke-dasharray:none;stroke-dashoffset:0;stroke-opacity:1"
         d="M 135.35136,89.207447 C 134.06478,86.712847 129.68207,85.312903 125.56995,86.093424 C 122.4356,86.688357 120.36302,88.3766 120.12202,90.249361 C 121.04735,89.581589 123.45949,87.873776 124.93274,87.594142 C 129.04485,86.813625 132.63014,87.838738 133.91674,90.333336 C 134.22438,90.929835 133.93756,93.087891 133.85993,93.675169 C 135.52867,92.478301 136.17956,90.813237 135.35136,89.207447 z"
         id="path3648" />
      <path
         style="fill:#ffff99;fill-rule:evenodd;stroke:none;stroke-width:1px;stroke-linecap:butt;stroke-linejoin:miter;stroke-opacity:1"
         d="M 114.33522,104.61931 C 110.79384,103.61467 111.13114,100.15516 111.95171,96.872883 C 112.57798,94.36784 117.19309,97.499144 119.69813,96.872883 C 123.14028,96.012347 123.35497,97.509544 125.65691,98.660518 C 128.78569,100.2249 123.46489,104.42781 123.2734,104.61931 C 121.49524,106.39747 116.2951,104.61931 114.33522,104.61931 z"
         id="path3650" />
      <path
         style="fill:#ffff99;fill-rule:evenodd;stroke:none;stroke-width:1px;stroke-linecap:butt;stroke-linejoin:miter;stroke-opacity:1"
         d="M 124.46516,94.48937 C 122.15281,95.067456 129.93031,92.803971 131.61571,94.48937 C 134.79662,97.670287 127.48657,97.628235 126.84867,97.468762 C 125.61482,97.160298 125.25967,95.482501 124.46516,94.48937 z"
         id="path3652" />
      <path
         style="fill:#ffd500;fill-rule:evenodd;stroke:none;stroke-width:1px;stroke-linecap:butt;stroke-linejoin:miter;stroke-opacity:1"
         d="M 117.9105,107.59869 C 114.99448,106.86969 123.93266,107.13594 126.84867,106.40694 C 129.51189,105.74113 130.18343,105.92591 131.61571,108.79045 C 133.34626,112.25156 132.05986,113.66852 129.23219,112.9616 C 125.90971,112.13098 125.02141,113.00123 123.2734,114.74924 C 123.06607,114.95657 118.67565,110.74736 118.50638,110.57809 C 117.79022,109.86193 118.10912,108.59182 117.9105,107.59869 z"
         id="path3654" />
      <path
         style="fill:#ffff99;fill-rule:evenodd;stroke:none;stroke-width:1px;stroke-linecap:butt;stroke-linejoin:miter;stroke-opacity:1"
         d="M 120.57138,93.736055 C 119.8452,94.946379 115.80676,94.976405 114.22833,94.581796 C 111.47367,93.893132 114.20227,92.057602 115.07406,91.621702 C 116.93687,90.690298 118.31147,90.214434 119.72565,89.507348 C 122.2075,88.26642 122.21912,90.178075 122.68574,92.044572 C 122.90464,92.920188 121.27617,93.172227 120.57138,93.736055 z"
         id="path3656" />
      <path
         style="opacity:1;fill:#57401e;fill-opacity:1;fill-rule:nonzero;stroke:none;stroke-width:4;stroke-linecap:round;stroke-linejoin:bevel;stroke-miterlimit:4;stroke-dasharray:none;stroke-dashoffset:0;stroke-opacity:1"
         d="M -9.3125,78.6875 C -11.392125,78.6875 -13.150729,80.086879 -13.75,81.96875 C -14.498209,82.70297 -14.974282,83.713819 -15.09375,84.8125 C -15.793131,84.393177 -16.594503,84.125 -17.46875,84.125 C -19.252168,84.125 -20.810306,85.152322 -21.59375,86.625 C -23.066428,87.408445 -24.09375,88.966583 -24.09375,90.75 C -24.09375,93.322607 -21.978857,95.406248 -19.40625,95.40625 C -17.617411,95.40625 -16.093644,94.386261 -15.3125,92.90625 C -14.87038,92.672901 -14.468777,92.388254 -14.125,92.03125 C -13.271516,93.117644 -11.987686,93.843748 -10.5,93.84375 C -8.6054053,93.84375 -6.9472334,92.718185 -6.21875,91.09375 C -5.6272403,91.365638 -4.9745377,91.53125 -4.28125,91.53125 C -1.7086434,91.53125 0.37500001,89.416358 0.375,86.84375 C 0.375,84.741425 -1.0237695,82.986279 -2.9375,82.40625 C -3.5175301,80.49252 -5.272675,79.093752 -7.375,79.09375 C -7.3962261,79.09375 -7.4163408,79.093467 -7.4375,79.09375 C -8.0122228,78.840114 -8.6442803,78.6875 -9.3125,78.6875 z M 36.90625,103.15625 C 35.025474,103.15625 33.392466,104.30082 32.65625,105.90625 C 32.349533,106.17721 32.070565,106.47016 31.84375,106.8125 C 29.832761,107.32919 28.34375,109.14103 28.34375,111.3125 C 28.34375,112.02867 28.523473,112.70604 28.8125,113.3125 C 28.279687,114.07013 27.96875,115.00407 27.96875,116 C 27.96875,116.02123 27.968467,116.04134 27.96875,116.0625 C 26.789344,116.26277 25.763256,116.90291 25.0625,117.8125 C 24.261877,117.16431 23.234596,116.75 22.125,116.75 C 19.552393,116.75 17.46875,118.8649 17.46875,121.4375 C 17.46875,124.01011 19.552394,126.09375 22.125,126.09375 C 22.99237,126.09375 23.804269,125.81949 24.5,125.40625 C 24.4942,125.50138 24.46875,125.59092 24.46875,125.6875 C 24.46875,128.26011 26.552394,130.34374 29.125,130.34375 C 31.697607,130.34375 33.781251,128.2601 33.78125,125.6875 C 33.78125,124.93859 33.595576,124.25221 33.28125,123.625 C 35.355611,123.15341 36.906249,121.31021 36.90625,119.09375 C 36.90625,118.7376 36.857028,118.39582 36.78125,118.0625 C 37.092676,117.4376 37.28125,116.74521 37.28125,116 C 37.28125,115.85036 37.263814,115.70855 37.25,115.5625 C 37.391514,115.57546 37.542625,115.59375 37.6875,115.59375 C 40.260107,115.59375 42.343748,113.51011 42.34375,110.9375 C 42.34375,109.95685 42.017966,109.06349 41.5,108.3125 C 41.516024,108.15539 41.5625,108.00507 41.5625,107.84375 C 41.5625,105.27114 39.478857,103.15625 36.90625,103.15625 z M -13.21875,117.53125 C -14.609327,117.53125 -15.833351,118.15812 -16.6875,119.125 C -18.326884,119.25799 -19.717313,120.23406 -20.4375,121.625 C -21.279651,120.79154 -22.409952,120.25 -23.6875,120.25 C -26.260107,120.25 -28.34375,122.33364 -28.34375,124.90625 C -28.34375,127.47886 -26.260106,129.59376 -23.6875,129.59375 C -21.89657,129.59375 -20.373996,128.54534 -19.59375,127.0625 C -18.750196,127.90605 -17.598803,128.40625 -16.3125,128.40625 C -15.88626,128.40625 -15.486087,128.32609 -15.09375,128.21875 C -14.798452,130.50762 -12.868836,132.3125 -10.5,132.3125 C -9.6960605,132.3125 -8.9415964,132.07762 -8.28125,131.71875 C -7.4266048,132.77438 -6.1192608,133.46875 -4.65625,133.46875 C -4.6244108,133.46875 -4.5941877,133.46939 -4.5625,133.46875 C -3.7154033,134.63741 -2.3339475,135.40625 -0.78125,135.40625 C 1.7913566,135.40625 3.875,133.32261 3.875,130.75 C 3.875,129.73751 3.549073,128.79585 3,128.03125 C 2.6252892,125.83341 0.74159601,124.15625 -1.5625,124.15625 C -1.6484658,124.15625 -1.7276764,124.1829 -1.8125,124.1875 C -2.4398705,122.35451 -4.1740131,121.03125 -6.21875,121.03125 C -7.0929975,121.03125 -7.8943695,121.29943 -8.59375,121.71875 C -8.8332721,119.37035 -10.807462,117.53125 -13.21875,117.53125 z"
         transform="translate(116.51297,0)"
         id="path3658" />
    </g>
  </g>
</svg>
