<?xml version="1.0" encoding="UTF-8" standalone="no"?>
<!-- Created with Inkscape (http://www.inkscape.org/) -->

<svg
   xmlns:dc="http://purl.org/dc/elements/1.1/"
   xmlns:cc="http://creativecommons.org/ns#"
   xmlns:rdf="http://www.w3.org/1999/02/22-rdf-syntax-ns#"
   xmlns:svg="http://www.w3.org/2000/svg"
   xmlns="http://www.w3.org/2000/svg"
   xmlns:xlink="http://www.w3.org/1999/xlink"
   xmlns:sodipodi="http://sodipodi.sourceforge.net/DTD/sodipodi-0.dtd"
   xmlns:inkscape="http://www.inkscape.org/namespaces/inkscape"
   width="32px"
   height="32px"
   id="svg3547"
   sodipodi:version="0.32"
   inkscape:version="0.48.2 r9819"
   sodipodi:docname="logo.svg"
   inkscape:output_extension="org.inkscape.output.svgz.inkscape"
   inkscape:export-filename="/home/kees/projects/android/Bomber/res/drawable/icon.png"
   inkscape:export-xdpi="180"
   inkscape:export-ydpi="180"
   version="1.1">
  <defs
     id="defs3549">
    <linearGradient
       id="linearGradient3221">
      <stop
         id="stop3223"
         offset="0"
         style="stop-color:#bf5e00;stop-opacity:1;" />
      <stop
         id="stop3225"
         offset="1"
         style="stop-color:#ffde00;stop-opacity:1;" />
    </linearGradient>
    <radialGradient
       inkscape:collect="always"
       xlink:href="#linearGradient3221"
       id="radialGradient3678"
       gradientUnits="userSpaceOnUse"
       gradientTransform="matrix(1.6160128,2.6877549e-8,-2.3415351e-8,1.3629167,-75.450599,-37.329241)"
       cx="122.48219"
       cy="98.430893"
       fx="122.48219"
       fy="98.430893"
       r="47.784527" />
    <radialGradient
       inkscape:collect="always"
       xlink:href="#linearGradient4177"
       id="radialGradient4183"
       cx="113.55189"
       cy="36.03302"
       fx="113.55189"
       fy="37.516903"
       r="1.8462265"
       gradientUnits="userSpaceOnUse" />
    <radialGradient
       inkscape:collect="always"
       xlink:href="#linearGradient3327"
       id="radialGradient4208"
       gradientUnits="userSpaceOnUse"
       gradientTransform="matrix(1,0,0,1.8895258,0,-30.147782)"
       cx="113.64062"
       cy="33.891968"
       fx="113.51218"
       fy="35.747726"
       r="2.109375" />
    <linearGradient
       inkscape:collect="always"
       id="linearGradient3435">
      <stop
         style="stop-color:#4d2600;stop-opacity:1;"
         offset="0"
         id="stop3437" />
      <stop
         style="stop-color:#4d2600;stop-opacity:0;"
         offset="1"
         id="stop3439" />
    </linearGradient>
    <radialGradient
       inkscape:collect="always"
       xlink:href="#linearGradient3435"
       id="radialGradient4195"
       cx="113.64062"
       cy="33.891968"
       fx="113.51218"
       fy="35.747726"
       r="2.109375"
       gradientTransform="matrix(1,0,0,1.8895258,0,-30.147782)"
       gradientUnits="userSpaceOnUse" />
    <linearGradient
       inkscape:collect="always"
       id="linearGradient4177">
      <stop
         style="stop-color:#ffffff;stop-opacity:1;"
         offset="0"
         id="stop4179" />
      <stop
         id="stop4185"
         offset="0.4953281"
         style="stop-color:#ffffff;stop-opacity:1" />
      <stop
         style="stop-color:#ffffff;stop-opacity:0.50196078;"
         offset="0.71962726"
         id="stop4187" />
      <stop
         style="stop-color:#ffffff;stop-opacity:0;"
         offset="1"
         id="stop4181" />
    </linearGradient>
    <radialGradient
       inkscape:collect="always"
       xlink:href="#linearGradient4177"
       id="radialGradient20076"
       gradientUnits="userSpaceOnUse"
       gradientTransform="matrix(2.0543954,0.2376081,-0.1002971,0.867185,-176.29111,-35.520987)"
       cx="168.79144"
       cy="-8.0560007"
       fx="168.79144"
       fy="-8.0560007"
       r="11.15625" />
    <radialGradient
       inkscape:collect="always"
       xlink:href="#linearGradient4363"
       id="radialGradient20074"
       gradientUnits="userSpaceOnUse"
       gradientTransform="matrix(0.5474129,4.5236462e-7,-2.0265029e-7,0.2453121,70.276541,6.5749913)"
       cx="159.86261"
       cy="-1.0310636"
       fx="159.86261"
       fy="-1.0310636"
       r="24.462599" />
    <linearGradient
       inkscape:collect="always"
       xlink:href="#linearGradient30747"
       id="linearGradient20072"
       gradientUnits="userSpaceOnUse"
       x1="163.3248"
       y1="21.072132"
       x2="162.25"
       y2="15.322132" />
    <linearGradient
       id="linearGradient3165">
      <stop
         style="stop-color:#cee9cb;stop-opacity:0.61960787;"
         offset="0"
         id="stop3167" />
      <stop
         style="stop-color:#37a42c;stop-opacity:0;"
         offset="1"
         id="stop3169" />
    </linearGradient>
    <linearGradient
       inkscape:collect="always"
       xlink:href="#linearGradient3165"
       id="linearGradient20070"
       gradientUnits="userSpaceOnUse"
       x1="162.3248"
       y1="15.822132"
       x2="162.25"
       y2="9.8221321" />
    <linearGradient
       inkscape:collect="always"
       id="linearGradient30747">
      <stop
         style="stop-color:#000000;stop-opacity:1;"
         offset="0"
         id="stop30749" />
      <stop
         style="stop-color:#000000;stop-opacity:0;"
         offset="1"
         id="stop30751" />
    </linearGradient>
    <linearGradient
       inkscape:collect="always"
       xlink:href="#linearGradient30747"
       id="linearGradient20068"
       gradientUnits="userSpaceOnUse"
       x1="148.75"
       y1="15.249998"
       x2="148.75"
       y2="10.624998" />
    <linearGradient
       inkscape:collect="always"
       xlink:href="#linearGradient4363"
       id="linearGradient20066"
       gradientUnits="userSpaceOnUse"
       x1="136.5"
       y1="10.624998"
       x2="142"
       y2="10.624998" />
    <linearGradient
       inkscape:collect="always"
       id="linearGradient4363">
      <stop
         style="stop-color:#f1f3f4;stop-opacity:1;"
         offset="0"
         id="stop4365" />
      <stop
         style="stop-color:#f1f3f4;stop-opacity:0;"
         offset="1"
         id="stop4367" />
    </linearGradient>
    <radialGradient
       inkscape:collect="always"
       xlink:href="#linearGradient4363"
       id="radialGradient20064"
       gradientUnits="userSpaceOnUse"
       cx="156.125"
       cy="51.625"
       fx="156.125"
       fy="51.625"
       r="7.125" />
    <linearGradient
       inkscape:collect="always"
       id="linearGradient3352">
      <stop
         style="stop-color:#ffe79a;stop-opacity:1"
         offset="0"
         id="stop3354" />
      <stop
         style="stop-color:#b8ff6f;stop-opacity:0"
         offset="1"
         id="stop3356" />
    </linearGradient>
    <radialGradient
       inkscape:collect="always"
       xlink:href="#linearGradient3352"
       id="radialGradient20062"
       gradientUnits="userSpaceOnUse"
       cx="156.125"
       cy="51.625"
       fx="156.125"
       fy="51.625"
       r="7.125" />
    <linearGradient
       inkscape:collect="always"
       id="linearGradient3327">
      <stop
         style="stop-color:#ff7e00;stop-opacity:1;"
         offset="0"
         id="stop3329" />
      <stop
         style="stop-color:#ff7e00;stop-opacity:0;"
         offset="1"
         id="stop3331" />
    </linearGradient>
    <radialGradient
       inkscape:collect="always"
       xlink:href="#linearGradient3327"
       id="radialGradient20060"
       gradientUnits="userSpaceOnUse"
       cx="156.125"
       cy="51.625"
       fx="156.125"
       fy="51.625"
       r="7.125" />
    <inkscape:perspective
       sodipodi:type="inkscape:persp3d"
       inkscape:vp_x="0 : 16 : 1"
       inkscape:vp_y="0 : 1000 : 0"
       inkscape:vp_z="32 : 16 : 1"
       inkscape:persp3d-origin="16 : 10.666667 : 1"
       id="perspective3555" />
    <linearGradient
       inkscape:collect="always"
       xlink:href="#linearGradient3221"
       id="linearGradient3862"
       x1="-0.5"
       y1="15.925417"
       x2="30.751194"
       y2="2.1523643"
       gradientUnits="userSpaceOnUse"
       gradientTransform="matrix(0.83629302,0,0,0.84099129,2.5617531,2.6453516)" />
    <linearGradient
       inkscape:collect="always"
       xlink:href="#linearGradient3221"
       id="linearGradient3870"
       x1="-0.5"
       y1="15.925417"
       x2="30.751194"
       y2="2.1523643"
       gradientUnits="userSpaceOnUse"
       gradientTransform="matrix(0.83629302,0,0,0.84099129,2.5617531,2.6453516)" />
  </defs>
  <sodipodi:namedview
     id="base"
     pagecolor="#ffffff"
     bordercolor="#666666"
     borderopacity="1.0"
     inkscape:pageopacity="0.0"
     inkscape:pageshadow="2"
     inkscape:zoom="11.197802"
     inkscape:cx="-12.66634"
     inkscape:cy="16.089303"
     inkscape:current-layer="layer2"
     showgrid="true"
     inkscape:grid-bbox="true"
     inkscape:document-units="px"
     inkscape:window-width="1920"
     inkscape:window-height="1053"
     inkscape:window-x="1024"
     inkscape:window-y="27"
     inkscape:snap-bbox="false"
     inkscape:window-maximized="1" />
  <metadata
     id="metadata3552">
    <rdf:RDF>
      <cc:Work
         rdf:about="">
        <dc:format>image/svg+xml</dc:format>
        <dc:type
           rdf:resource="http://purl.org/dc/dcmitype/StillImage" />
        <dc:title></dc:title>
      </cc:Work>
    </rdf:RDF>
  </metadata>
  <g
     inkscape:groupmode="layer"
     id="layer2"
     inkscape:label="Layer">
    <rect
       style="fill:url(#linearGradient3870);fill-opacity:1;stroke:url(#linearGradient3862);stroke-width:0.83863878"
       id="rect3070"
       width="26.736757"
       height="26.736757"
       x="2.561753"
       y="2.6701105"
       ry="2.7667601" />
  </g>
  <g
     id="layer1"
     inkscape:label="Layer 1"
     inkscape:groupmode="layer">
    <g
       id="plane_0"
       transform="matrix(0.50463362,0,0,0.60328155,-63.383717,3.3512025)">
      <path
         sodipodi:nodetypes="ccccccccc"
         id="rect19992"
         d="m 145.78491,0 9.43018,2.5 c 1.68134,0 3.03491,1.3535679 3.03491,3.0349057 l 0,0.4301886 C 158.25,7.6464321 156.89643,9 155.21509,9 l -7.18018,0 C 146.35357,9 145,7.6464321 145,5.9650943 l 0,-0.4301886 C 145,3.8535679 137.85357,-2.25 145.78491,0 z"
         style="fill:#babdb6;fill-opacity:1;fill-rule:nonzero;stroke:none"
         inkscape:connector-curvature="0" />
      <path
         style="fill:#d3d7cf;fill-opacity:1;fill-rule:nonzero;stroke:none"
         d="m 145.03472,0.25 7.539,2.5 C 153.91788,2.75 155,4.1035679 155,5.7849057 l 0,0.4301886 C 155,7.8964321 153.91788,9.25 152.57372,9.25 l -5.74022,0 c -1.34416,0 -2.42627,-1.3535679 -2.42627,-3.0349057 l 0,-0.4301886 C 144.40723,4.1035679 138.69398,-2 145.03472,0.25 z"
         id="path20039"
         sodipodi:nodetypes="ccccccccc"
         inkscape:connector-curvature="0" />
      <g
         transform="matrix(1.4444445,0,0,0.8148148,-87.013889,-31.439815)"
         id="g18955">
        <path
           sodipodi:type="arc"
           style="fill:url(#radialGradient20060);fill-opacity:1;fill-rule:nonzero;stroke:none"
           id="path18937"
           sodipodi:cx="156.125"
           sodipodi:cy="51.625"
           sodipodi:rx="7.125"
           sodipodi:ry="7.125"
           d="m 163.25,51.625 c 0,3.935029 -3.18997,7.125 -7.125,7.125 -3.93503,0 -7.125,-3.189971 -7.125,-7.125 0,-3.935029 3.18997,-7.125 7.125,-7.125 3.93503,0 7.125,3.189971 7.125,7.125 z"
           transform="matrix(0.9473684,0,0,0.9473684,8.2171053,2.7171053)" />
        <path
           d="m 163.25,51.625 c 0,3.935029 -3.18997,7.125 -7.125,7.125 -3.93503,0 -7.125,-3.189971 -7.125,-7.125 0,-3.935029 3.18997,-7.125 7.125,-7.125 3.93503,0 7.125,3.189971 7.125,7.125 z"
           sodipodi:ry="7.125"
           sodipodi:rx="7.125"
           sodipodi:cy="51.625"
           sodipodi:cx="156.125"
           id="path18947"
           style="fill:url(#radialGradient20062);fill-opacity:1;fill-rule:nonzero;stroke:none"
           sodipodi:type="arc"
           transform="matrix(0.6491228,0,0,0.6491228,54.780702,18.114035)" />
        <path
           transform="matrix(0.4561403,0,0,0.4561403,84.910088,28.076754)"
           sodipodi:type="arc"
           style="fill:url(#radialGradient20064);fill-opacity:1;fill-rule:nonzero;stroke:none"
           id="path18951"
           sodipodi:cx="156.125"
           sodipodi:cy="51.625"
           sodipodi:rx="7.125"
           sodipodi:ry="7.125"
           d="m 163.25,51.625 c 0,3.935029 -3.18997,7.125 -7.125,7.125 -3.93503,0 -7.125,-3.189971 -7.125,-7.125 0,-3.935029 3.18997,-7.125 7.125,-7.125 3.93503,0 7.125,3.189971 7.125,7.125 z" />
      </g>
      <path
         id="path19974"
         d="m 162.375,1.75 c -0.80552,0 -1.59447,0.034194 -2.375,0.07116 -0.15519,0.314511 -0.25,0.6436137 -0.25,0.9725151 0,3.2995301 8.12,5.9774096 18.125,5.9774096 1.44408,0 2.84071,-0.060646 4.1875,-0.1660391 C 180.79645,4.740413 172.47173,1.75 162.375,1.75 z"
         style="fill:#2e3436;fill-opacity:1;fill-rule:nonzero;stroke:none"
         inkscape:connector-curvature="0" />
      <path
         id="rect19987"
         d="m 140.53125,5.9999982 c -0.43484,0 -0.78125,0.346412 -0.78125,0.78125 l 0,7.6874998 c 0,0.434838 0.34641,0.78125 0.78125,0.78125 l 4.9375,0 c 0.43484,0 0.78125,-0.346413 0.78125,-0.78125 l 0,-0.21875 10.71875,0 c 0.43484,0 0.78125,-0.346413 0.78125,-0.78125 l 0,-5.6874998 c 0,-0.4348378 -0.34641,-0.78125 -0.78125,-0.78125 l -10.71875,0 0,-0.21875 c 0,-0.4348378 -0.34641,-0.78125 -0.78125,-0.78125 l -4.9375,0 z"
         style="fill:#2e3436;fill-opacity:1;fill-rule:nonzero;stroke:none"
         inkscape:connector-curvature="0" />
      <path
         id="path20034"
         d="m 140.53125,5.9999982 c -0.43484,0 -0.78125,0.346412 -0.78125,0.78125 l 0,7.6874998 c 0,0.434838 0.34641,0.78125 0.78125,0.78125 l 4.9375,0 c 0.43484,0 0.78125,-0.346413 0.78125,-0.78125 l 0,-0.21875 10.71875,0 c 0.43484,0 0.78125,-0.346413 0.78125,-0.78125 l 0,-5.6874998 c 0,-0.4348378 -0.34641,-0.78125 -0.78125,-0.78125 l -10.71875,0 0,-0.21875 c 0,-0.4348378 -0.34641,-0.78125 -0.78125,-0.78125 l -4.9375,0 z"
         style="fill:url(#linearGradient20066);fill-opacity:1;fill-rule:nonzero;stroke:none"
         inkscape:connector-curvature="0" />
      <path
         style="fill:url(#linearGradient20068);fill-opacity:1;fill-rule:nonzero;stroke:none"
         d="m 140.53125,5.9999982 c -0.43484,0 -0.78125,0.346412 -0.78125,0.78125 l 0,7.6874998 c 0,0.434838 0.34641,0.78125 0.78125,0.78125 l 4.9375,0 c 0.43484,0 0.78125,-0.346413 0.78125,-0.78125 l 0,-0.21875 10.71875,0 c 0.43484,0 0.78125,-0.346413 0.78125,-0.78125 l 0,-5.6874998 c 0,-0.4348378 -0.34641,-0.78125 -0.78125,-0.78125 l -10.71875,0 0,-0.21875 c 0,-0.4348378 -0.34641,-0.78125 -0.78125,-0.78125 l -4.9375,0 z"
         id="path20024"
         inkscape:connector-curvature="0" />
      <path
         sodipodi:nodetypes="ccscsscssc"
         id="path19978"
         d="m 160,1.8211596 c -8.99662,0.4260798 -16.13906,3.2333143 -17.3125,6.7838856 9.29155,0.2686942 13.8125,1.5794868 13.8125,4.3844128 0,1.147722 -26.70692,6.207851 -22.78125,9.833584 0.51419,0.02251 30.45166,-6.142987 32.65625,-6.573042 8.971,-1.75 15.875,-2.278 15.875,-6.625 0,-0.3464074 -0.0779,-0.6853201 -0.1875,-1.0199548 -1.34679,0.1053929 -2.74342,0.1660391 -4.1875,0.1660391 -10.005,0 -18.125,-2.6778795 -18.125,-5.9774096 0,-0.3289014 0.0948,-0.6580041 0.25,-0.9725151 z"
         style="fill:#babdb6;fill-opacity:1;fill-rule:nonzero;stroke:none"
         inkscape:connector-curvature="0" />
      <path
         style="fill:url(#linearGradient20070);fill-opacity:1;fill-rule:nonzero;stroke:none"
         d="m 160,1.8211596 c -8.99662,0.4260798 -16.13906,3.2333143 -17.3125,6.7838856 9.29155,0.2686942 13.8125,1.5794868 13.8125,4.3844128 0,1.147722 -26.70692,6.207851 -22.78125,9.833584 0.51419,0.02251 30.45166,-6.142987 32.65625,-6.573042 8.971,-1.75 15.875,-2.278 15.875,-6.625 0,-0.3464074 -0.0779,-0.6853201 -0.1875,-1.0199548 -1.34679,0.1053929 -2.74342,0.1660391 -4.1875,0.1660391 -10.005,0 -18.125,-2.6778795 -18.125,-5.9774096 0,-0.3289014 0.0948,-0.6580041 0.25,-0.9725151 z"
         id="path19994"
         sodipodi:nodetypes="ccscsscssc"
         inkscape:connector-curvature="0" />
      <path
         sodipodi:nodetypes="ccscsscssc"
         id="path20004"
         d="m 160,1.8211596 c -8.99662,0.4260798 -16.13906,3.2333143 -17.3125,6.7838856 9.29155,0.2686942 13.8125,1.5794868 13.8125,4.3844128 0,1.147722 -26.70692,6.207851 -22.78125,9.833584 0.51419,0.02251 30.45166,-6.142987 32.65625,-6.573042 8.971,-1.75 15.875,-2.278 15.875,-6.625 0,-0.3464074 -0.0779,-0.6853201 -0.1875,-1.0199548 -1.34679,0.1053929 -2.74342,0.1660391 -4.1875,0.1660391 -10.005,0 -18.125,-2.6778795 -18.125,-5.9774096 0,-0.3289014 0.0948,-0.6580041 0.25,-0.9725151 z"
         style="fill:url(#linearGradient20072);fill-opacity:1;fill-rule:nonzero;stroke:none"
         inkscape:connector-curvature="0" />
      <path
         style="fill:url(#radialGradient20074);fill-opacity:1;fill-rule:nonzero;stroke:none"
         d="m 160,1.8211596 c -8.99662,0.4260798 -16.13906,3.2333143 -17.3125,6.7838856 9.29155,0.2686942 13.8125,1.5794868 13.8125,4.3844128 0,1.147722 -26.70692,6.207851 -22.78125,9.833584 0.51419,0.02251 30.45166,-6.142987 32.65625,-6.573042 8.971,-1.75 15.875,-2.278 15.875,-6.625 0,-0.3464074 -0.0779,-0.6853201 -0.1875,-1.0199548 -1.34679,0.1053929 -2.74342,0.1660391 -4.1875,0.1660391 -10.005,0 -18.125,-2.6778795 -18.125,-5.9774096 0,-0.3289014 0.0948,-0.6580041 0.25,-0.9725151 z"
         id="path20008"
         sodipodi:nodetypes="ccscsscssc"
         inkscape:connector-curvature="0" />
      <path
         style="fill:url(#radialGradient20076);fill-opacity:1;fill-rule:nonzero;stroke:none"
         d="m 163.22794,2.25 c -0.76039,0 -1.50514,0.030541 -2.24195,0.063558 -0.14649,0.2809145 -0.23599,0.5748621 -0.23599,0.8686299 0,2.9470707 7.6651,5.3388961 17.10959,5.3388961 1.36318,0 2.68157,-0.054168 3.95291,-0.1483026 C 180.61738,4.9209738 172.75903,2.25 163.22794,2.25 z"
         id="path20014"
         inkscape:connector-curvature="0" />
    </g>
    <g
       id="bomb_0"
       transform="matrix(0.4434254,0,0,0.30144494,-59.284123,6.0884506)"
       inkscape:label="#g17682">
      <path
         transform="matrix(1.1420466,0,0,2.1761692,41.639576,-35.57935)"
         style="fill:url(#radialGradient4195);fill-opacity:1;fill-rule:nonzero;stroke:none"
         d="m 113.84375,29.96875 c -0.0658,0.35562 -0.009,0.748982 -0.21875,1.0625 0.0244,0.430905 -0.041,0.867769 -0.25,1.25 -0.0312,0.104167 -0.0625,0.208333 -0.0937,0.3125 0.028,-0.272122 0.0154,-0.556049 0.125,-0.8125 l 0,-0.125 c -0.0376,-0.07508 -0.12769,-0.196847 0,-0.25 0.0971,-0.284997 -0.0765,-0.581654 -0.0312,-0.875 l -0.0312,-0.0625 -0.0937,0.03125 0.0894,0.119142 0.004,0.0059 -0.14604,-0.02921 C 113.14981,30.70179 113.2522,30.90451 113.125,31 l 0.0625,0.125 0.0625,0.0625 c -0.0176,0.08733 -0.11591,0.116534 -0.15625,0.1875 0.10033,0.05126 -0.10069,0.07774 -0.0312,0.15625 l 0,0.0625 -0.0937,0 c -0.12292,0.101196 0.12292,0.273804 0,0.375 -0.0592,-0.07924 -0.23527,-0.238604 -0.125,-0.34375 0.007,-0.136865 1.6e-4,-0.272571 -0.0312,-0.40625 L 112.75,31.1875 c 0.0791,-0.01034 -0.0281,-0.175571 0.0937,-0.0625 0.0523,-0.03762 0.0634,-0.188103 -0.0312,-0.1875 -0.0565,-0.02245 -0.096,0.07552 -0.0312,0.09375 -0.0395,0.100899 -0.2579,-0.05539 -0.21875,0.09375 0.0391,0.02694 0.06,0.09806 0.125,0.0625 0.0627,0.06602 0.0388,0.205854 -0.0625,0.21875 0.0574,0.03802 0.11842,0.181056 0,0.1875 l 0,0.125 c 0.0208,0.108922 -0.17422,-0.107372 -0.0625,0.0625 0.0226,0.06984 0.13218,0.03628 0.0937,0.125 -0.0632,0.213525 -0.0155,0.438027 -0.0312,0.65625 -0.0406,0.106885 -0.10375,-0.09155 -0.0937,-0.09375 -0.11233,0.01653 -0.0716,-0.204262 0.0312,-0.15625 0.10464,-0.08333 -0.0672,-0.192518 -0.15625,-0.15625 l 0,-0.09375 c -0.093,0.02695 -0.21205,0.15617 -0.125,0.25 -0.0601,0.118629 -0.0737,0.244806 -0.0625,0.375 l -0.125,0.0625 c 0.0216,0.248071 0.17311,0.50168 0.0937,0.75 0.0327,0.112842 0.11883,0.191448 0.1875,0.28125 l -0.14538,0.03231 -0.13587,0.03019 c -0.046,0.136965 0.13379,0.206139 0.0937,0.34375 l 0.0292,0.146035 c -0.0119,0.04031 -0.14377,0.05045 -0.0917,0.135215 l 0.0312,0.0625 -0.0625,0.0625 c -0.0939,-0.0058 0.0454,0.142628 0.0937,0.09375 -0.0365,-0.04687 0.0677,-0.04687 0.0312,0 0.0777,-0.08031 0.25106,-0.02859 0.21875,0.09375 -0.0829,0.08952 0.0204,0.222976 -0.0625,0.3125 -0.0103,-0.07912 -0.17557,0.02806 -0.0625,-0.09375 -0.0625,-0.03125 -0.125,-0.0625 -0.1875,-0.09375 -0.0107,0.06333 -0.0866,0.08645 -0.0625,0.15625 -0.0748,0.0235 -0.0815,-0.117252 -0.15625,-0.09375 0.026,0.235852 -0.12606,0.451336 -0.0937,0.6875 -0.0803,0.08886 -0.22861,-0.04004 -0.28125,0.09375 0.12782,0.290131 0.27176,0.582529 0.28125,0.90625 0.136,0.0031 0.0438,0.206417 0.15625,0.25 0.20443,0.272588 0.48318,0.477308 0.6875,0.75 0.13722,0.0677 0.26953,0.195418 0.4375,0.15625 0.18376,0.04241 0.37595,0.104633 0.5625,0.03125 0.32509,-0.01659 0.63368,-0.139636 0.90625,-0.3125 l 0,-0.0625 c 0.0708,-0.02984 0.23632,-0.0059 0.25,-0.125 0.12346,-0.262405 0.47932,-0.42066 0.4375,-0.75 0.0836,-0.125478 0.15242,-0.362803 0.34375,-0.34375 l 0.0937,-0.09375 0.0625,-0.125 c -0.1166,0.07443 -0.28979,0.101924 -0.34375,0.25 l -0.0312,0 c -0.0521,-0.739583 -0.10417,-1.479167 -0.15625,-2.21875 l -0.0625,0.125 -0.0312,0.09375 -0.0625,-0.125 c 0.004,-0.101641 -0.0793,0.05816 -0.125,0 L 114.9062,34.125 c 0.0379,-0.110134 0.12601,-0.283393 0,-0.375 -0.0962,-0.185908 0.0244,-0.373813 0,-0.5625 0.027,-0.478807 0.0373,-0.957977 0.0312,-1.4375 l -0.0625,0.09375 c 0.0208,-0.333333 0.0417,-0.666667 0.0625,-1 -0.0544,0.492343 -0.12602,0.982127 -0.21875,1.46875 0,-0.145833 0,-0.291667 0,-0.4375 -0.0521,0.395833 -0.10417,0.791667 -0.15625,1.1875 l -0.0292,-0.146035 -0.002,-0.01022 c 0,0.145833 0,0.291667 0,0.4375 l -0.125,-0.03125 -0.125,0 c 0.0417,-0.104167 0.0833,-0.208333 0.125,-0.3125 l -0.0625,-0.0625 c -0.11802,0.04377 -0.29786,-0.116642 -0.1875,-0.21875 l 0.0937,0 c 0.0782,0.02842 -0.0107,-0.0879 0.0625,-0.09375 0.031,0.05496 0.12045,0.101322 0.0937,0 0.0631,0.03196 0.10672,-0.122601 0,-0.0625 l -0.0312,0.0625 c 0.0251,-0.03914 -0.0131,-0.112426 -0.0625,-0.09375 -0.0852,-0.126851 0.005,-0.273099 0,-0.40625 l 0.0312,-0.0625 c 0.0587,-0.0039 0.16387,0.02834 0.0312,-0.125 -0.01,-0.125057 0.0253,-0.255684 -0.0312,-0.375 l 0.0292,-0.146035 c 0.0275,-0.04399 0.17812,0.0465 0.12704,-0.07271 0.034,0.07896 0.1715,0.02046 0.125,-0.0625 0.0122,-0.05075 -0.0869,-0.177318 0,-0.21875 l -0.0937,0 c -0.0895,0.03756 0.0282,-0.146326 0,-0.125 l 0.0312,-0.09375 c 0.0825,-0.06388 -0.003,-0.197282 0.0312,-0.28125 l -0.0312,0 c -0.1093,0.286674 -0.20355,0.578179 -0.28125,0.875 -0.11599,0.09635 -0.20353,0.216025 -0.28125,0.34375 -0.1176,-0.07353 0.10944,-0.209295 0,-0.28125 -0.0667,0.03526 -0.18722,0.198699 -0.25,0.0625 0.0503,-0.09196 -0.1128,-0.09554 -0.0625,-0.1875 0.17326,0.02368 0.0983,-0.244076 0.21875,-0.3125 0.0683,-0.235651 -0.007,-0.483188 0.0625,-0.71875 -0.0115,-0.150035 -0.0486,-0.29463 -0.0937,-0.4375 l -0.0312,0.0625 z M 113.25,30.5 c -0.008,-0.02861 -0.0277,-0.148052 -0.0937,-0.125 l 0,-0.0625 c -0.10464,-0.03646 -0.17816,0.07941 -0.0937,0.15625 0.028,0.01368 0.11479,-0.03145 0.0937,0.03125 l 0.0937,0 z m 0.84375,1.3125 c 0.10822,0.104944 -0.0825,0.24824 -0.0312,0.375 l -0.0625,0.125 -0.0625,0.09375 c -0.0711,-0.02083 0.009,-0.104167 -0.0625,-0.125 -0.0483,-0.140769 0.12768,-0.279376 0.0312,-0.40625 0.0593,-0.034 0.0807,0.126782 0.125,0.03125 l 0,-0.09375 0.0625,0 z m 0.875,2.4375 0.0312,0 c -0.0521,0.1875 -0.10417,0.375 -0.15625,0.5625 0.0312,-0.1875 0.0625,-0.375 0.0937,-0.5625 l 0.0312,0 z"
         id="path4172"
         sodipodi:nodetypes="csssssccsssssssc"
         inkscape:connector-curvature="0" />
      <path
         transform="matrix(0.9758996,0,0,1.8595762,60.457995,-24.565523)"
         style="fill:url(#radialGradient4208);fill-opacity:1;fill-rule:nonzero;stroke:none"
         d="m 113.1875,31.46875 c 0.001,0.0085 0.001,0.02289 0,0.03125 -0.004,0.0026 0.003,0.02941 0,0.03125 l 0,0.0625 c 0.001,0.01038 0.001,0.02087 0,0.03125 0.001,0.01038 0.001,0.02087 0,0.03125 -0.009,0.01215 -0.0191,0.02273 -0.0312,0.03125 -0.0175,0.01602 -0.0392,0.02684 -0.0625,0.03125 0.0154,0.03422 0.0239,0.09493 0.0312,0.15625 0.007,0.06132 -0.002,0.137591 -0.0625,0.1875 -0.009,0.01215 -0.0191,0.02273 -0.0312,0.03125 -0.0104,0.0013 -0.0209,0.0013 -0.0312,0 -0.0104,0.0013 -0.0209,0.0013 -0.0312,0 -0.0104,0.0013 -0.0209,0.0013 -0.0312,0 -0.0104,0.0013 -0.0209,0.0013 -0.0312,0 -0.0122,-0.0085 -0.0227,-0.0191 -0.0312,-0.03125 -10e-4,-0.01038 -10e-4,-0.02087 0,-0.03125 -0.009,-0.01193 -0.0688,-0.03256 -0.0937,-0.0625 -0.0392,0.167944 -0.0147,0.364126 -0.0312,0.59375 0.001,0.01038 0.001,0.02087 0,0.03125 -0.009,0.02464 -0.0307,0.06648 -0.0625,0.09375 -0.0318,0.02727 -0.0829,0.04448 -0.125,0.03125 -0.0841,-0.02645 -0.10935,-0.06461 -0.125,-0.09375 -0.0156,-0.02914 -0.0238,-0.06888 -0.0312,-0.09375 -0.004,-0.01243 0.002,-0.01629 0,-0.03125 -4.2e-4,0.0019 -0.0309,-0.0019 -0.0312,0 -0.0124,0.05923 -0.0371,0.119306 -0.0312,0.1875 10e-4,0.01038 10e-4,0.02087 0,0.03125 10e-4,0.01038 10e-4,0.02087 0,0.03125 -0.009,0.01215 -0.0191,0.02273 -0.0312,0.03125 -0.0104,0.0013 -0.0209,0.0013 -0.0312,0 0.001,0.01038 0.001,0.02087 0,0.03125 l -0.0312,0.03125 c 0.0168,0.08081 0.0389,0.153606 0.0625,0.25 0.028,0.114648 0.0266,0.2403 0,0.375 0.0204,0.07041 0.0781,0.147807 0.15625,0.25 0.0122,0.0085 0.0227,0.0191 0.0312,0.03125 0.001,0.01038 0.001,0.02087 0,0.03125 0.001,0.01038 0.001,0.02087 0,0.03125 -0.009,0.01215 -0.0191,0.02273 -0.0312,0.03125 0.001,0.01038 0.001,0.02087 0,0.03125 -0.009,0.01215 -0.0191,0.02273 -0.0312,0.03125 -0.0104,0.0013 -0.0209,0.0013 -0.0312,0 L 112.25,33.9375 c 0.0169,0.02548 0.0449,0.07808 0.0625,0.125 0.0106,0.02815 -1e-5,0.05735 0,0.09375 1e-5,0.02426 0.007,0.03779 0,0.0625 l 0.0312,0.09375 c 0.001,0.01038 0.001,0.02087 0,0.03125 0.001,0.01038 0.001,0.02087 0,0.03125 -0.0143,0.04832 -0.0404,0.04846 -0.0625,0.0625 -0.006,0.0035 0.005,0.02875 0,0.03125 0.001,0.01038 0.001,0.02087 0,0.03125 0.001,0.01038 0.001,0.02087 0,0.03125 0.05,-0.0088 0.0787,-0.01718 0.125,0 0.0463,0.01718 0.0942,0.04413 0.125,0.09375 0.0308,0.04962 0.0471,0.127496 0.0312,0.1875 -0.004,0.02333 -0.0152,0.04498 -0.0312,0.0625 -0.002,0.0021 -0.005,0.0068 0,0.0625 0.005,0.05574 0.0184,0.162602 -0.0625,0.25 -0.009,0.01215 -0.0191,0.02273 -0.0312,0.03125 -0.0104,0.0013 -0.0209,0.0013 -0.0312,0 -0.0104,0.0013 -0.0209,0.0013 -0.0312,0 -0.0104,0.0013 -0.0209,0.0013 -0.0312,0 -0.0104,0.0013 -0.0209,0.0013 -0.0312,0 -0.001,-0.01038 -0.001,-0.02087 0,-0.03125 -0.005,3.07e-4 -0.0228,6.7e-5 -0.0312,0 -0.008,-6.7e-5 -0.0148,0.004 -0.0312,0 -0.008,-0.002 -0.0198,0.0057 -0.0312,0 -0.006,-0.0029 -0.0309,-0.031 -0.0312,-0.03125 -2.3e-4,-2.41e-4 0.006,-0.02218 0,-0.03125 -0.003,-0.0045 -0.0284,0.0045 -0.0312,0 0.001,0.01038 0.001,0.02087 0,0.03125 -0.009,0.01215 -0.0191,0.02273 -0.0312,0.03125 -0.0104,0.0013 -0.0209,0.0013 -0.0312,0 -0.0332,0.01045 -0.0595,-0.02104 -0.0937,-0.03125 -0.0115,0.06512 -0.016,0.131333 -0.0312,0.1875 -0.0306,0.112335 -0.043,0.195015 -0.0312,0.28125 0.001,0.01038 0.001,0.02087 0,0.03125 0.001,0.01038 0.001,0.02087 0,0.03125 -0.004,0.02333 -0.0152,0.04498 -0.0312,0.0625 -0.0435,0.04814 -0.11,0.05805 -0.15625,0.0625 -0.0154,0.0015 -0.0185,2.58e-4 -0.0312,0 0.10501,0.235029 0.19681,0.498086 0.21875,0.78125 0.0182,0.01401 0.0522,0.01425 0.0625,0.03125 0.0309,0.05099 0.0269,0.094 0.0312,0.125 0.002,0.0155 -0.002,0.0214 0,0.03125 0.0122,0.0085 0.0227,0.0191 0.0312,0.03125 0.001,0.01038 0.001,0.02087 0,0.03125 0.1769,0.235876 0.44466,0.424378 0.65625,0.6875 0.0826,0.04075 0.12937,0.09603 0.1875,0.125 0.0581,0.02897 0.1094,0.04218 0.15625,0.03125 0.0104,-0.0013 0.0209,-0.0013 0.0312,0 0.0104,-0.0013 0.0209,-0.0013 0.0312,0 0.19142,0.04418 0.36416,0.08468 0.5,0.03125 0.0104,-0.0013 0.0209,-0.0013 0.0312,0 0.2739,-0.01397 0.53844,-0.106193 0.78125,-0.25 -0.001,-0.01038 -0.001,-0.02087 0,-0.03125 -0.001,-0.01038 -0.001,-0.02087 0,-0.03125 0.009,-0.01215 0.0191,-0.02273 0.0312,-0.03125 0.009,-0.01215 0.0191,-0.02273 0.0312,-0.03125 0.0795,-0.03348 0.15497,-0.02334 0.1875,-0.03125 -0.001,-0.01038 -0.001,-0.02087 0,-0.03125 0.0777,-0.165038 0.22116,-0.270432 0.3125,-0.375 0.0913,-0.104568 0.13988,-0.164044 0.125,-0.28125 -0.001,-0.01038 -0.001,-0.02087 0,-0.03125 -0.001,-0.01038 -0.001,-0.02087 0,-0.03125 0.009,-0.01215 0.0191,-0.02273 0.0312,-0.03125 0.0226,-0.03397 0.0543,-0.121077 0.0937,-0.1875 -10e-4,-0.01038 -10e-4,-0.02087 0,-0.03125 -10e-4,-0.01038 -10e-4,-0.02087 0,-0.03125 -0.044,-0.624834 -0.081,-1.250164 -0.125,-1.875 -0.0104,0.0013 -0.0209,0.0013 -0.0312,0 -0.0406,0.146134 -0.0844,0.291371 -0.125,0.4375 -0.004,0.02333 -0.0152,0.04498 -0.0312,0.0625 -0.009,0.01215 -0.0191,0.02273 -0.0312,0.03125 -0.0104,0.0013 -0.0209,0.0013 -0.0312,0 -0.0104,0.0013 -0.0209,0.0013 -0.0312,0 -0.0104,0.0013 -0.0209,0.0013 -0.0312,0 -0.0104,0.0013 -0.0209,0.0013 -0.0312,0 -0.0122,-0.0085 -0.0227,-0.0191 -0.0312,-0.03125 -0.016,-0.01752 -0.0268,-0.03917 -0.0312,-0.0625 -0.001,-0.01038 -0.001,-0.02087 0,-0.03125 -0.001,-0.01038 -0.001,-0.02087 0,-0.03125 0.0312,-0.1875 0.0625,-0.375 0.0937,-0.5625 -10e-4,-0.01038 -10e-4,-0.02087 0,-0.03125 -0.0104,0.0013 -0.0209,0.0013 -0.0312,0 -0.001,-0.01038 -0.001,-0.02087 0,-0.03125 -0.001,-0.01038 -0.001,-0.02087 0,-0.03125 -0.001,-0.01038 -0.001,-0.02087 0,-0.03125 0.0221,-0.06438 0.0554,-0.143031 0.0625,-0.1875 0.007,-0.04447 0.0206,-0.04755 0,-0.0625 -0.0104,0.0013 -0.0209,0.0013 -0.0312,0 -0.0122,-0.0085 -0.0227,-0.0191 -0.0312,-0.03125 -0.0662,-0.127919 -0.0476,-0.273406 -0.0312,-0.375 0.0163,-0.101594 0.0393,-0.156323 0.0312,-0.21875 -0.001,-0.01038 -0.001,-0.02087 0,-0.03125 0.0146,-0.258714 0.0264,-0.522304 0.0312,-0.78125 -0.0104,0.0013 -0.0209,0.0013 -0.0312,0 -0.001,0.01024 0.001,0.02101 0,0.03125 -0.0288,0.219069 -0.0649,0.437182 -0.0937,0.65625 10e-4,0.01038 10e-4,0.02087 0,0.03125 -0.0104,0.0013 -0.0209,0.0013 -0.0312,0 0,0.01042 0,0.02083 0,0.03125 0,0.0625 0,0.125 0,0.1875 10e-4,0.01038 10e-4,0.02087 0,0.03125 10e-4,0.01038 10e-4,0.02087 0,0.03125 -0.009,0.01215 -0.0191,0.02273 -0.0312,0.03125 -0.0175,0.01602 -0.0392,0.02684 -0.0625,0.03125 -0.0104,0.0013 -0.0209,0.0013 -0.0312,0 -0.0104,0.0013 -0.0209,0.0013 -0.0312,0 l -0.0937,-0.03125 -0.0312,0 -0.0937,0 c -0.0104,0.0013 -0.0209,0.0013 -0.0312,0 -0.0104,0.0013 -0.0209,0.0013 -0.0312,0 -0.0122,-0.0085 -0.0227,-0.0191 -0.0312,-0.03125 -0.016,-0.01752 -0.0268,-0.03917 -0.0312,-0.0625 -10e-4,-0.01038 -10e-4,-0.02087 0,-0.03125 -10e-4,-0.01038 -10e-4,-0.02087 0,-0.03125 -10e-4,-0.01038 -10e-4,-0.02087 0,-0.03125 0.0244,-0.06106 0.0381,-0.126436 0.0625,-0.1875 -0.0536,-0.01749 -0.11839,-0.05467 -0.15625,-0.09375 -0.0379,-0.03908 -0.0552,-0.09058 -0.0625,-0.15625 -0.007,-0.06567 0.01,-0.1389 0.0625,-0.1875 0.0104,-0.0013 0.0209,-0.0013 0.0312,0 0.009,-0.01215 0.0191,-0.02273 0.0312,-0.03125 0.0104,-0.0013 0.0209,-0.0013 0.0312,0 0.002,-0.0043 0.0289,0.0044 0.0312,0 0.004,-0.0065 -0.005,-0.02485 0,-0.03125 -0.0446,-0.08963 -0.0428,-0.178906 -0.0312,-0.25 l -0.0312,0.0625 c -0.0104,0.0013 -0.0209,0.0013 -0.0312,0 l -0.0625,0.09375 c 10e-4,0.01038 10e-4,0.02087 0,0.03125 -0.009,0.01215 -0.0191,0.02273 -0.0312,0.03125 -0.0104,0.0013 -0.0209,0.0013 -0.0312,0 -0.0104,0.0013 -0.0209,0.0013 -0.0312,0 -0.0104,0.0013 -0.0209,0.0013 -0.0312,0 -0.0403,-0.01179 -0.0726,-0.08449 -0.0937,-0.125 -0.003,-0.0058 -0.0293,0.0058 -0.0312,0 -0.008,-0.02321 9e-5,-0.0168 0,-0.03125 -0.0122,-0.0085 -0.0227,-0.0191 -0.0312,-0.03125 -0.001,-0.01038 -0.001,-0.02087 0,-0.03125 -0.0438,-0.127621 0.007,-0.218606 0.0312,-0.28125 0.0119,-0.03132 0.0306,-0.0531 0.0312,-0.0625 6.2e-4,-0.0094 0.006,-0.02336 0,-0.03125 -0.0122,-0.0085 -0.0227,-0.0191 -0.0312,-0.03125 -0.001,-0.01038 -0.001,-0.02087 0,-0.03125 -0.001,-0.01038 -0.001,-0.02087 0,-0.03125 0.009,-0.01215 0.0191,-0.02273 0.0312,-0.03125 -0.001,-0.01038 -0.001,-0.02087 0,-0.03125 0.009,-0.01215 0.0191,-0.02273 0.0312,-0.03125 -0.021,0.0044 -0.0359,0.0041 -0.0625,0 -0.0303,-0.0047 -0.0383,-0.04371 -0.0625,-0.0625 -0.0398,0.212969 -0.11509,0.428503 -0.21875,0.625 -0.003,0.0096 0.003,0.02169 0,0.03125 -0.0284,0.09461 -0.0654,0.18664 -0.0937,0.28125 0.001,0.01038 0.001,0.02087 0,0.03125 -0.009,0.01215 -0.0191,0.02273 -0.0312,0.03125 -0.009,0.01215 -0.0191,0.02273 -0.0312,0.03125 -0.0104,0.0013 -0.0209,0.0013 -0.0312,0 -0.0104,0.0013 -0.0209,0.0013 -0.0312,0 -0.0104,0.0013 -0.0209,0.0013 -0.0312,0 -0.0104,0.0013 -0.0209,0.0013 -0.0312,0 -0.0122,-0.0085 -0.0227,-0.0191 -0.0312,-0.03125 -10e-4,-0.01038 -10e-4,-0.02087 0,-0.03125 -0.0122,-0.0085 -0.0227,-0.0191 -0.0312,-0.03125 -0.001,-0.01038 -0.001,-0.02087 0,-0.03125 0.0248,-0.241563 0.0263,-0.540508 0.125,-0.8125 l 0,-0.0625 c -0.0129,-0.02575 -0.0431,-0.07613 -0.0625,-0.15625 -0.006,-0.02404 -0.003,-0.06275 0,-0.09375 -0.005,0.0063 -0.0268,-0.004 -0.0312,0 z m 1.03125,0.21875 c -0.009,0.01109 -0.0228,0.01975 -0.0312,0.03125 0.051,0.04941 0.0661,0.128872 0.0625,0.1875 -0.004,-0.102767 -0.022,-0.159903 -0.0312,-0.21875 z m 0.1875,0.96875 c 0.0543,0.0303 0.072,0.02589 0.0625,0.03125 l 0,-0.03125 -0.0625,0 z"
         id="path4201"
         inkscape:connector-curvature="0" />
      <path
         transform="matrix(0.7641031,0,0,1.6751806,84.555771,-17.00694)"
         d="m 115.39811,36.03302 c 0,1.019643 -0.82658,1.846226 -1.84622,1.846226 -1.01965,0 -1.84623,-0.826583 -1.84623,-1.846226 0,-1.019643 0.82658,-1.846226 1.84623,-1.846226 1.01964,0 1.84622,0.826583 1.84622,1.846226 z"
         sodipodi:ry="1.8462265"
         sodipodi:rx="1.8462265"
         sodipodi:cy="36.03302"
         sodipodi:cx="113.55189"
         id="path4174"
         style="fill:url(#radialGradient4183);fill-opacity:1;fill-rule:nonzero;stroke:none"
         sodipodi:type="arc" />
    </g>
    <g
       id="g3630"
       transform="matrix(0.1141848,0,0,0.11686047,2.2993155,13.082355)">
      <path
         style="fill:#382509;fill-opacity:1;fill-rule:nonzero;stroke:none"
         d="m 109.1875,72.5625 c -1.87479,0.403031 -3.58013,1.34098 -5.15625,2.40625 -0.9886,0.325521 -1.73367,1.082031 -2.5,1.75 -1.10127,0.403543 -2.278363,-0.123386 -3.403294,0.138182 -1.26006,0.04357 -2.346506,0.853373 -2.987272,1.898204 -0.686442,0.897412 -1.565013,1.608166 -2.535156,2.172942 -1.784342,1.430567 -2.7429,3.594399 -3.397822,5.728534 -0.648344,1.746476 -1.541959,3.787457 -3.520206,4.312138 -0.999165,0.285415 -2.196822,0.489987 -2.705255,1.526632 -0.64254,0.979846 -0.761511,2.450465 0.188452,3.279697 1.40422,1.852262 2.614756,3.840335 3.915683,5.760171 0.56338,0.70855 1.104938,1.48361 1.91362,1.9335 1.419762,0.0935 1.995894,-1.52223 3.163373,-2.0302 1.88663,-0.99133 4.378164,-0.63923 5.930377,0.81145 1.500458,3.29807 0.659212,7.00456 1.28125,10.46875 0.08469,1.78229 -1.072539,3.58657 -2.827329,4.07044 -2.727921,1.16725 -5.789936,0.70032 -8.578921,0.0233 -1.030253,-0.22162 -2.113614,-0.21673 -3.125,0.0937 -1.081061,1.20022 -0.764199,2.92689 -1.1875,4.375 -0.219197,1.56312 -0.05282,3.46089 -1.40625,4.5625 -0.738551,0.6656 -1.788772,1.46908 -1.59375,2.59375 0.664544,1.76968 2.677371,2.24556 4.21875,2.96875 1.406664,0.54504 2.82199,1.22384 4.308747,1.44713 1.378761,-0.1492 2.523721,-1.11138 3.316253,-2.19713 1.135873,-0.77209 2.418967,0.15486 3.59375,0.3125 2.251042,0.46585 4.87507,0.30281 6.65625,2 1.22447,1.30512 0.63487,3.53963 2.15625,4.65625 1.58626,1.30434 3.8312,0.85115 5.59375,0.1875 1.52434,-0.49881 3.51672,-0.56802 4.65625,0.75 0.68913,0.67524 2.05976,1.10696 2.71191,0.15858 1.40747,-1.66984 3.04205,-3.50174 5.35059,-3.75233 1.43568,-0.20356 2.95526,-0.0353 4.3125,-0.625 0.88478,-0.98959 0.20362,-2.36699 -0.28125,-3.375 -0.70209,-1.79238 -1.91056,-3.55384 -1.6875,-5.5625 0.52633,-1.19764 2.19475,-1.51816 3.21875,-0.78125 2.05196,0.89334 3.49049,2.66957 5.03125,4.21875 0.9519,0.51406 1.91402,-0.39174 2.4375,-1.125 1.44929,-1.17976 3.48697,-0.81635 5.09375,-0.1875 0.91374,0.22078 2.20786,0.21124 2.5625,1.28125 0.59711,1.78649 0.66577,3.97176 2.28125,5.21875 0.82259,0.93629 2.47316,1.40941 3.40625,0.375 2.29772,-1.69638 4.36966,-4.13418 4.59375,-7.09375 -0.0106,-1.48516 -0.48382,-2.94052 -1.28125,-4.1875 -0.49914,-1.45753 0.72207,-2.79927 1.8125,-3.59375 2.37088,-1.78569 5.08273,-3.02764 7.59375,-4.59375 1.28626,-1.39442 1.05287,-3.47294 0.375,-5.09375 -0.74649,-2.52082 -0.19848,-5.23397 0.94788,-7.54505 0.51535,-1.07536 0.46657,-2.742235 -0.75807,-3.307577 -2.09375,-1.450229 -4.86729,-1.043252 -7.1203,-0.21503 -2.74211,0.97083 -5.56133,1.787987 -8.16095,3.107787 -1.50607,0.88793 -2.6997,2.65597 -2.22486,4.45534 0.2607,1.66541 0.80779,3.27984 1.13635,4.92577 0.35527,0.76635 0.80278,1.95305 -0.1013,2.51626 -0.87632,0.54544 -2.11165,0.48875 -2.72457,1.44332 -0.80128,0.81922 -1.27552,1.93014 -1.43168,3.05668 -0.59723,0.9899 -1.76832,1.42509 -2.40625,2.375 -1.27156,0.98304 -2.89648,0.15147 -4.23909,-0.21144 -2.76947,-0.85102 -5.59855,0.34312 -8.05725,1.5625 -2.32932,0.95759 -4.81305,1.43967 -7.26616,1.96144 -1.02178,0.0617 -2.09191,0.0859 -2.96875,0.6875 -0.99216,0.58048 -2.12737,0.28818 -2.93688,-0.4438 -1.01421,-0.68358 -2.02447,-1.43901 -3.25062,-1.6812 -1.18499,-0.45088 -1.31565,-2.16863 -2.64824,-2.35737 -1.1168,-0.26809 -2.50377,-0.17761 -3.23258,-1.2422 -0.86334,-0.96118 -1.89151,-1.78929 -3.12841,-2.20192 -0.90205,-0.56008 -0.66717,-1.73576 -0.35863,-2.567 0.39055,-1.44225 0.37855,-2.95691 0.0482,-4.40579 -0.11691,-1.275 -0.2994,-2.54292 -0.39905,-3.81947 0.48399,-1.51636 2.2476,-2.03371 3.6875,-2.03125 2.52211,-0.14455 5.31812,-0.45231 7.1875,-2.34375 2.21831,-2.03147 3.25938,-5.163453 2.875,-8.125 0.0436,-1.150131 1.2694,-1.723645 2.16548,-2.176491 1.60275,-0.668161 2.49165,-2.387416 2.51385,-4.067817 -0.0351,-1.335846 -0.27775,-2.658405 -0.29445,-3.995735 0.0347,-1.393024 -0.74135,-2.699995 -1.90883,-3.432207 -1.38056,-1.028204 -2.74199,-2.180059 -3.54962,-3.73021 -0.8606,-1.164355 -1.22206,-2.876235 -2.67643,-3.47254 -0.69639,-0.257592 -1.49916,-0.105288 -2.21875,0 z"
         id="path3632"
         inkscape:connector-curvature="0" />
      <path
         sodipodi:type="arc"
         style="fill:url(#radialGradient3678);fill-opacity:1;fill-rule:nonzero;stroke:none"
         id="path3634"
         sodipodi:cx="122.48218"
         sodipodi:cy="110.40285"
         sodipodi:rx="47.784527"
         sodipodi:ry="47.784527"
         d="m 170.2667,110.40285 c 0,26.39066 -21.39386,47.78452 -47.78452,47.78452 -26.390668,0 -47.784529,-21.39386 -47.784529,-47.78452 0,-26.390668 21.393861,-47.78453 47.784529,-47.78453 26.39066,0 47.78452,21.393862 47.78452,47.78453 z"
         transform="matrix(0.5585318,0,0,0.4571282,54.079528,56.365138)" />
      <path
         id="path3636"
         d="m 144.99713,109.57804 c 3.7637,-4.80258 3.32781,-12.108823 -0.99224,-16.292945 -3.29285,-3.189257 -7.88864,-3.646486 -11.55419,-1.561276 1.89129,0.313795 6.75999,1.173796 8.30774,2.672857 4.32003,4.184113 4.90095,10.007804 1.13726,14.810384 -0.89995,1.14838 -5.13025,3.53979 -6.28116,4.1911 3.39695,0.57533 6.95989,-0.72866 9.38259,-3.82012 z"
         style="fill:#974a00;fill-opacity:1;fill-rule:nonzero;stroke:none"
         inkscape:transform-center-x="-19.178994"
         inkscape:transform-center-y="-4.5671563"
         sodipodi:nodetypes="cscsscc"
         inkscape:connector-curvature="0" />
      <path
         style="fill:#803f00;fill-opacity:1;fill-rule:nonzero;stroke:none"
         d="m 96.861756,99.016875 c -0.182952,1.336385 -0.287678,2.708485 -0.287678,4.098345 0,15.61616 11.949662,28.28478 26.682082,28.28478 14.73243,0 26.70606,-12.66862 26.70606,-28.28478 0,-1.38986 -0.10473,-2.76196 -0.28767,-4.098345 -1.87266,13.678975 -12.99717,24.186435 -26.41839,24.186435 -13.42122,0 -24.521751,-10.50746 -26.394404,-24.186435 z"
         id="path3638"
         inkscape:connector-curvature="0" />
      <path
         id="path3640"
         d="m 104.36155,90.221309 c -4.788763,1.725941 -7.291576,7.015322 -5.565633,11.804071 1.315563,3.65014 4.704793,5.95614 8.360683,6.08494 -1.3459,-1.03668 -4.79034,-3.74186 -5.40869,-5.45753 -1.72594,-4.788769 0.0878,-9.105781 4.87657,-10.831721 1.14505,-0.412697 5.35833,-0.253507 6.50489,-0.210692 -2.41282,-1.870188 -5.68526,-2.500065 -8.76782,-1.389068 z"
         style="fill:#974a00;fill-opacity:1;fill-rule:nonzero;stroke:none"
         inkscape:transform-center-x="16.259846"
         inkscape:transform-center-y="-3.8875753"
         sodipodi:nodetypes="cscsscc"
         inkscape:connector-curvature="0" />
      <path
         id="path3642"
         d="m 113.03061,118.89429 c 4.16607,3.94892 11.71396,4.56238 16.8358,1.35035 3.90402,-2.4483 5.27353,-6.40931 3.86361,-9.90223 -0.69191,1.61295 -2.52638,5.75803 -4.36139,6.9088 -5.12184,3.21203 -11.184,2.92744 -15.35007,-1.02147 -0.99616,-0.94424 -2.60792,-4.97326 -3.04713,-6.0695 -1.2547,2.89543 -0.62255,6.19211 2.05918,8.73405 z"
         style="fill:#590000;fill-opacity:1;fill-rule:nonzero;stroke:none"
         inkscape:transform-center-x="-1.4503285"
         inkscape:transform-center-y="18.088784"
         sodipodi:nodetypes="cscsscc"
         inkscape:connector-curvature="0" />
      <path
         sodipodi:nodetypes="cscsscc"
         inkscape:transform-center-y="10.956709"
         inkscape:transform-center-x="11.27726"
         style="fill:#ac4311;fill-opacity:1;fill-rule:nonzero;stroke:none"
         d="m 100.87269,105.02046 c -0.891903,5.01154 2.44487,9.81857 7.45642,10.71048 3.81995,0.67983 7.50885,-1.10805 9.44354,-4.21273 -1.56975,0.64967 -5.63218,2.28635 -7.42768,1.96679 -5.01154,-0.8919 -7.84909,-4.61677 -6.95718,-9.62831 0.21326,-1.19833 2.45224,-4.771019 3.06109,-5.743499 -2.82425,1.15884 -5.00206,3.681309 -5.57619,6.907269 z"
         id="path3644"
         inkscape:connector-curvature="0" />
      <path
         sodipodi:nodetypes="cscsscc"
         inkscape:transform-center-y="9.0506922"
         inkscape:transform-center-x="-12.890167"
         style="fill:#590000;fill-opacity:1;fill-rule:nonzero;stroke:none"
         d="m 134.42631,116.97093 c 5.08994,0.059 9.28555,-4.01998 9.34459,-9.10994 0.045,-3.87971 -2.32292,-7.22597 -5.70256,-8.626032 0.898,1.442142 3.17794,5.181652 3.15678,7.005242 -0.059,5.08995 -3.26885,8.49926 -8.3588,8.44021 -1.21708,-0.0141 -5.10824,-1.6377 -6.1673,-2.07905 1.60577,2.59631 4.45086,4.33156 7.72729,4.36957 z"
         id="path3646"
         inkscape:connector-curvature="0" />
      <path
         sodipodi:nodetypes="cscsscc"
         inkscape:transform-center-y="-8.179197"
         inkscape:transform-center-x="-3.8195745"
         style="fill:#974a00;fill-opacity:1;fill-rule:nonzero;stroke:none"
         d="m 135.35136,89.207447 c -1.28658,-2.4946 -5.66929,-3.894544 -9.78141,-3.114023 -3.13435,0.594933 -5.20693,2.283176 -5.44793,4.155937 0.92533,-0.667772 3.33747,-2.375585 4.81072,-2.655219 4.11211,-0.780517 7.6974,0.244596 8.984,2.739194 0.30764,0.596499 0.0208,2.754555 -0.0568,3.341833 1.66874,-1.196868 2.31963,-2.861932 1.49143,-4.467722 z"
         id="path3648"
         inkscape:connector-curvature="0" />
      <path
         style="fill:#ffff99;fill-rule:evenodd;stroke:none"
         d="m 114.33522,104.61931 c -3.54138,-1.00464 -3.20408,-4.46415 -2.38351,-7.746427 0.62627,-2.505043 5.24138,0.626261 7.74642,0 3.44215,-0.860536 3.65684,0.636661 5.95878,1.787635 3.12878,1.564382 -2.19202,5.767292 -2.38351,5.958792 -1.77816,1.77816 -6.9783,0 -8.93818,0 z"
         id="path3650"
         inkscape:connector-curvature="0" />
      <path
         style="fill:#ffff99;fill-rule:evenodd;stroke:none"
         d="m 124.46516,94.48937 c -2.31235,0.578086 5.46515,-1.685399 7.15055,0 3.18091,3.180917 -4.12914,3.138865 -4.76704,2.979392 -1.23385,-0.308464 -1.589,-1.986261 -2.38351,-2.979392 z"
         id="path3652"
         inkscape:connector-curvature="0" />
      <path
         style="fill:#ffd500;fill-rule:evenodd;stroke:none"
         d="m 117.9105,107.59869 c -2.91602,-0.729 6.02216,-0.46275 8.93817,-1.19175 2.66322,-0.66581 3.33476,-0.48103 4.76704,2.38351 1.73055,3.46111 0.44415,4.87807 -2.38352,4.17115 -3.32248,-0.83062 -4.21078,0.0396 -5.95879,1.78764 -0.20733,0.20733 -4.59775,-4.00188 -4.76702,-4.17115 -0.71616,-0.71616 -0.39726,-1.98627 -0.59588,-2.9794 z"
         id="path3654"
         inkscape:connector-curvature="0" />
      <path
         style="fill:#ffff99;fill-rule:evenodd;stroke:none"
         d="m 120.57138,93.736055 c -0.72618,1.210324 -4.76462,1.24035 -6.34305,0.845741 -2.75466,-0.688664 -0.0261,-2.524194 0.84573,-2.960094 1.86281,-0.931404 3.23741,-1.407268 4.65159,-2.114354 2.48185,-1.240928 2.49347,0.670727 2.96009,2.537224 0.2189,0.875616 -1.40957,1.127655 -2.11436,1.691483 z"
         id="path3656"
         inkscape:connector-curvature="0" />
      <path
         style="fill:#57401e;fill-opacity:1;fill-rule:nonzero;stroke:none"
         d="m -9.3125,78.6875 c -2.079625,0 -3.838229,1.399379 -4.4375,3.28125 -0.748209,0.73422 -1.224282,1.745069 -1.34375,2.84375 -0.699381,-0.419323 -1.500753,-0.6875 -2.375,-0.6875 -1.783418,0 -3.341556,1.027322 -4.125,2.5 -1.472678,0.783445 -2.5,2.341583 -2.5,4.125 0,2.572607 2.114893,4.656248 4.6875,4.65625 1.788839,0 3.312606,-1.019989 4.09375,-2.5 0.44212,-0.233349 0.843723,-0.517996 1.1875,-0.875 0.853484,1.086394 2.137314,1.812498 3.625,1.8125 1.8945947,0 3.5527666,-1.125565 4.28125,-2.75 0.5915097,0.271888 1.2442123,0.4375 1.9375,0.4375 2.5726066,0 4.65625001,-2.114892 4.65625,-4.6875 0,-2.102325 -1.3987695,-3.857471 -3.3125,-4.4375 -0.5800301,-1.91373 -2.335175,-3.312498 -4.4375,-3.3125 -0.021226,0 -0.041341,-2.83e-4 -0.0625,0 -0.5747228,-0.253636 -1.2067803,-0.40625 -1.875,-0.40625 z m 46.21875,24.46875 c -1.880776,0 -3.513784,1.14457 -4.25,2.75 -0.306717,0.27096 -0.585685,0.56391 -0.8125,0.90625 -2.010989,0.51669 -3.5,2.32853 -3.5,4.5 0,0.71617 0.179723,1.39354 0.46875,2 -0.532813,0.75763 -0.84375,1.69157 -0.84375,2.6875 0,0.0212 -2.83e-4,0.0413 0,0.0625 -1.179406,0.20027 -2.205494,0.84041 -2.90625,1.75 -0.800623,-0.64819 -1.827904,-1.0625 -2.9375,-1.0625 -2.572607,0 -4.65625,2.1149 -4.65625,4.6875 0,2.57261 2.083644,4.65625 4.65625,4.65625 0.86737,0 1.679269,-0.27426 2.375,-0.6875 -0.0058,0.0951 -0.03125,0.18467 -0.03125,0.28125 0,2.57261 2.083644,4.65624 4.65625,4.65625 2.572607,0 4.656251,-2.08365 4.65625,-4.65625 0,-0.74891 -0.185674,-1.43529 -0.5,-2.0625 2.074361,-0.47159 3.624999,-2.31479 3.625,-4.53125 0,-0.35615 -0.04922,-0.69793 -0.125,-1.03125 0.311426,-0.6249 0.5,-1.31729 0.5,-2.0625 0,-0.14964 -0.01744,-0.29145 -0.03125,-0.4375 0.141514,0.013 0.292625,0.0312 0.4375,0.0312 2.572607,0 4.656248,-2.08364 4.65625,-4.65625 0,-0.98065 -0.325784,-1.87401 -0.84375,-2.625 0.01602,-0.15711 0.0625,-0.30743 0.0625,-0.46875 0,-2.57261 -2.083643,-4.6875 -4.65625,-4.6875 z m -50.125,14.375 c -1.390577,0 -2.614601,0.62687 -3.46875,1.59375 -1.639384,0.13299 -3.029813,1.10906 -3.75,2.5 -0.842151,-0.83346 -1.972452,-1.375 -3.25,-1.375 -2.572607,0 -4.65625,2.08364 -4.65625,4.65625 0,2.57261 2.083644,4.68751 4.65625,4.6875 1.79093,0 3.313504,-1.04841 4.09375,-2.53125 0.843554,0.84355 1.994947,1.34375 3.28125,1.34375 0.42624,0 0.826413,-0.0802 1.21875,-0.1875 0.295298,2.28887 2.224914,4.09375 4.59375,4.09375 0.8039395,0 1.5584036,-0.23488 2.21875,-0.59375 0.8546452,1.05563 2.1619892,1.75 3.625,1.75 0.031839,0 0.062062,6.4e-4 0.09375,0 0.8470967,1.16866 2.2285525,1.9375 3.78125,1.9375 2.5726066,0 4.65625,-2.08364 4.65625,-4.65625 0,-1.01249 -0.325927,-1.95415 -0.875,-2.71875 -0.3747108,-2.19784 -2.25840399,-3.875 -4.5625,-3.875 -0.085966,0 -0.1651764,0.0267 -0.25,0.0312 -0.6273705,-1.83299 -2.3615131,-3.15625 -4.40625,-3.15625 -0.8742475,0 -1.6756195,0.26818 -2.375,0.6875 -0.2395221,-2.3484 -2.213712,-4.1875 -4.625,-4.1875 z"
         transform="translate(116.51297,0)"
         id="path3658"
         inkscape:connector-curvature="0" />
    </g>
  </g>
</svg>
